<?xml version="1.0" encoding="utf-8" standalone="no"?>
<!DOCTYPE svg PUBLIC "-//W3C//DTD SVG 1.1//EN"
  "http://www.w3.org/Graphics/SVG/1.1/DTD/svg11.dtd">
<svg xmlns:xlink="http://www.w3.org/1999/xlink" width="820.8pt" height="480.24pt" viewBox="0 0 820.8 480.24" xmlns="http://www.w3.org/2000/svg" version="1.1">
 <metadata>
  <rdf:RDF xmlns:dc="http://purl.org/dc/elements/1.1/" xmlns:cc="http://creativecommons.org/ns#" xmlns:rdf="http://www.w3.org/1999/02/22-rdf-syntax-ns#">
   <cc:Work>
    <dc:type rdf:resource="http://purl.org/dc/dcmitype/StillImage"/>
    <dc:date>2022-04-05T14:52:03.933843</dc:date>
    <dc:format>image/svg+xml</dc:format>
    <dc:creator>
     <cc:Agent>
      <dc:title>Matplotlib v3.5.1, https://matplotlib.org/</dc:title>
     </cc:Agent>
    </dc:creator>
   </cc:Work>
  </rdf:RDF>
 </metadata>
 <defs>
  <style type="text/css">*{stroke-linejoin: round; stroke-linecap: butt}</style>
 </defs>
 <g id="figure_1">
  <g id="patch_1">
   <path d="M 0 480.24 
L 820.8 480.24 
L 820.8 0 
L 0 0 
z
" style="fill: #ffffff"/>
  </g>
  <g id="axes_1">
   <g id="patch_2">
    <path d="M 57.9975 447.476703 
L 801.5625 447.476703 
L 801.5625 67.780797 
L 57.9975 67.780797 
z
" style="fill: #ffffff"/>
   </g>
   <g id="patch_3">
    <path d="M 135.915717 352.941571 
C 146.649903 352.941571 156.94589 348.676834 164.536106 341.086618 
C 172.126321 333.496402 176.391059 323.200415 176.391059 312.466229 
C 176.391059 301.732043 172.126321 291.436056 164.536106 283.84584 
C 156.94589 276.255624 146.649903 271.990887 135.915717 271.990887 
C 125.181531 271.990887 114.885544 276.255624 107.295328 283.84584 
C 99.705112 291.436056 95.440375 301.732043 95.440375 312.466229 
C 95.440375 323.200415 99.705112 333.496402 107.295328 341.086618 
C 114.885544 348.676834 125.181531 352.941571 135.915717 352.941571 
L 135.915717 352.941571 
z
" clip-path="url(#pede8918f25)" style="fill: none; stroke: #ffd700; stroke-linejoin: miter"/>
   </g>
   <g id="patch_4">
    <path d="M 451.876608 121.724007 
C 425.041143 121.724007 399.301176 132.385851 380.325636 151.361391 
C 361.350097 170.33693 350.688253 196.076897 350.688253 222.912363 
C 350.688253 249.747828 361.350097 275.487795 380.325636 294.463335 
C 399.301176 313.438874 425.041143 324.100718 451.876608 324.100718 
C 478.712074 324.100718 504.452041 313.438874 523.427581 294.463335 
C 542.40312 275.487795 553.064964 249.747828 553.064964 222.912363 
C 553.064964 196.076897 542.40312 170.33693 523.427581 151.361391 
C 504.452041 132.385851 478.712074 121.724007 451.876608 121.724007 
L 451.876608 121.724007 
z
" clip-path="url(#pede8918f25)" style="fill: none; stroke: #ffd700; stroke-linejoin: miter"/>
   </g>
   <g id="patch_5">
    <path d="M 227.20676 430.217798 
C 245.09707 430.217798 262.257049 423.109903 274.907408 410.459543 
C 287.557768 397.809183 294.665664 380.649205 294.665664 362.758895 
C 294.665664 344.868585 287.557768 327.708607 274.907408 315.058247 
C 262.257049 302.407887 245.09707 295.299992 227.20676 295.299992 
C 209.31645 295.299992 192.156472 302.407887 179.506112 315.058247 
C 166.855752 327.708607 159.747857 344.868585 159.747857 362.758895 
C 159.747857 380.649205 166.855752 397.809183 179.506112 410.459543 
C 192.156472 423.109903 209.31645 430.217798 227.20676 430.217798 
L 227.20676 430.217798 
z
" clip-path="url(#pede8918f25)" style="fill: none; stroke: #ffd700; stroke-linejoin: miter"/>
   </g>
   <g id="patch_6">
    <path d="M 360.123795 354.875315 
C 395.904416 354.875315 430.224372 340.659524 455.525091 315.358805 
C 480.825811 290.058085 495.041602 255.738129 495.041602 219.957508 
C 495.041602 184.176888 480.825811 149.856932 455.525091 124.556212 
C 430.224372 99.255493 395.904416 85.039702 360.123795 85.039702 
C 324.343175 85.039702 290.023219 99.255493 264.722499 124.556212 
C 239.42178 149.856932 225.205988 184.176888 225.205988 219.957508 
C 225.205988 255.738129 239.42178 290.058085 264.722499 315.358805 
C 290.023219 340.659524 324.343175 354.875315 360.123795 354.875315 
L 360.123795 354.875315 
z
" clip-path="url(#pede8918f25)" style="fill: none; stroke: #ffd700; stroke-linejoin: miter"/>
   </g>
   <g id="matplotlib.axis_1">
    <g id="xtick_1">
     <g id="line2d_1">
      <defs>
       <path id="m3901f5a4fd" d="M 0 0 
L 0 3.5 
" style="stroke: #000000; stroke-width: 0.8"/>
      </defs>
      <g>
       <use xlink:href="#m3901f5a4fd" x="95.742072" y="447.476703" style="stroke: #000000; stroke-width: 0.8"/>
      </g>
     </g>
     <g id="text_1">
      <!-- 0 -->
      <g transform="translate(92.560822 462.075141)scale(0.1 -0.1)">
       <defs>
        <path id="DejaVuSans-30" d="M 2034 4250 
Q 1547 4250 1301 3770 
Q 1056 3291 1056 2328 
Q 1056 1369 1301 889 
Q 1547 409 2034 409 
Q 2525 409 2770 889 
Q 3016 1369 3016 2328 
Q 3016 3291 2770 3770 
Q 2525 4250 2034 4250 
z
M 2034 4750 
Q 2819 4750 3233 4129 
Q 3647 3509 3647 2328 
Q 3647 1150 3233 529 
Q 2819 -91 2034 -91 
Q 1250 -91 836 529 
Q 422 1150 422 2328 
Q 422 3509 836 4129 
Q 1250 4750 2034 4750 
z
" transform="scale(0.015625)"/>
       </defs>
       <use xlink:href="#DejaVuSans-30"/>
      </g>
     </g>
    </g>
    <g id="xtick_2">
     <g id="line2d_2">
      <g>
       <use xlink:href="#m3901f5a4fd" x="230.659879" y="447.476703" style="stroke: #000000; stroke-width: 0.8"/>
      </g>
     </g>
     <g id="text_2">
      <!-- 2 -->
      <g transform="translate(227.478629 462.075141)scale(0.1 -0.1)">
       <defs>
        <path id="DejaVuSans-32" d="M 1228 531 
L 3431 531 
L 3431 0 
L 469 0 
L 469 531 
Q 828 903 1448 1529 
Q 2069 2156 2228 2338 
Q 2531 2678 2651 2914 
Q 2772 3150 2772 3378 
Q 2772 3750 2511 3984 
Q 2250 4219 1831 4219 
Q 1534 4219 1204 4116 
Q 875 4013 500 3803 
L 500 4441 
Q 881 4594 1212 4672 
Q 1544 4750 1819 4750 
Q 2544 4750 2975 4387 
Q 3406 4025 3406 3419 
Q 3406 3131 3298 2873 
Q 3191 2616 2906 2266 
Q 2828 2175 2409 1742 
Q 1991 1309 1228 531 
z
" transform="scale(0.015625)"/>
       </defs>
       <use xlink:href="#DejaVuSans-32"/>
      </g>
     </g>
    </g>
    <g id="xtick_3">
     <g id="line2d_3">
      <g>
       <use xlink:href="#m3901f5a4fd" x="365.577685" y="447.476703" style="stroke: #000000; stroke-width: 0.8"/>
      </g>
     </g>
     <g id="text_3">
      <!-- 4 -->
      <g transform="translate(362.396435 462.075141)scale(0.1 -0.1)">
       <defs>
        <path id="DejaVuSans-34" d="M 2419 4116 
L 825 1625 
L 2419 1625 
L 2419 4116 
z
M 2253 4666 
L 3047 4666 
L 3047 1625 
L 3713 1625 
L 3713 1100 
L 3047 1100 
L 3047 0 
L 2419 0 
L 2419 1100 
L 313 1100 
L 313 1709 
L 2253 4666 
z
" transform="scale(0.015625)"/>
       </defs>
       <use xlink:href="#DejaVuSans-34"/>
      </g>
     </g>
    </g>
    <g id="xtick_4">
     <g id="line2d_4">
      <g>
       <use xlink:href="#m3901f5a4fd" x="500.495492" y="447.476703" style="stroke: #000000; stroke-width: 0.8"/>
      </g>
     </g>
     <g id="text_4">
      <!-- 6 -->
      <g transform="translate(497.314242 462.075141)scale(0.1 -0.1)">
       <defs>
        <path id="DejaVuSans-36" d="M 2113 2584 
Q 1688 2584 1439 2293 
Q 1191 2003 1191 1497 
Q 1191 994 1439 701 
Q 1688 409 2113 409 
Q 2538 409 2786 701 
Q 3034 994 3034 1497 
Q 3034 2003 2786 2293 
Q 2538 2584 2113 2584 
z
M 3366 4563 
L 3366 3988 
Q 3128 4100 2886 4159 
Q 2644 4219 2406 4219 
Q 1781 4219 1451 3797 
Q 1122 3375 1075 2522 
Q 1259 2794 1537 2939 
Q 1816 3084 2150 3084 
Q 2853 3084 3261 2657 
Q 3669 2231 3669 1497 
Q 3669 778 3244 343 
Q 2819 -91 2113 -91 
Q 1303 -91 875 529 
Q 447 1150 447 2328 
Q 447 3434 972 4092 
Q 1497 4750 2381 4750 
Q 2619 4750 2861 4703 
Q 3103 4656 3366 4563 
z
" transform="scale(0.015625)"/>
       </defs>
       <use xlink:href="#DejaVuSans-36"/>
      </g>
     </g>
    </g>
    <g id="xtick_5">
     <g id="line2d_5">
      <g>
       <use xlink:href="#m3901f5a4fd" x="635.413299" y="447.476703" style="stroke: #000000; stroke-width: 0.8"/>
      </g>
     </g>
     <g id="text_5">
      <!-- 8 -->
      <g transform="translate(632.232049 462.075141)scale(0.1 -0.1)">
       <defs>
        <path id="DejaVuSans-38" d="M 2034 2216 
Q 1584 2216 1326 1975 
Q 1069 1734 1069 1313 
Q 1069 891 1326 650 
Q 1584 409 2034 409 
Q 2484 409 2743 651 
Q 3003 894 3003 1313 
Q 3003 1734 2745 1975 
Q 2488 2216 2034 2216 
z
M 1403 2484 
Q 997 2584 770 2862 
Q 544 3141 544 3541 
Q 544 4100 942 4425 
Q 1341 4750 2034 4750 
Q 2731 4750 3128 4425 
Q 3525 4100 3525 3541 
Q 3525 3141 3298 2862 
Q 3072 2584 2669 2484 
Q 3125 2378 3379 2068 
Q 3634 1759 3634 1313 
Q 3634 634 3220 271 
Q 2806 -91 2034 -91 
Q 1263 -91 848 271 
Q 434 634 434 1313 
Q 434 1759 690 2068 
Q 947 2378 1403 2484 
z
M 1172 3481 
Q 1172 3119 1398 2916 
Q 1625 2713 2034 2713 
Q 2441 2713 2670 2916 
Q 2900 3119 2900 3481 
Q 2900 3844 2670 4047 
Q 2441 4250 2034 4250 
Q 1625 4250 1398 4047 
Q 1172 3844 1172 3481 
z
" transform="scale(0.015625)"/>
       </defs>
       <use xlink:href="#DejaVuSans-38"/>
      </g>
     </g>
    </g>
    <g id="xtick_6">
     <g id="line2d_6">
      <g>
       <use xlink:href="#m3901f5a4fd" x="770.331106" y="447.476703" style="stroke: #000000; stroke-width: 0.8"/>
      </g>
     </g>
     <g id="text_6">
      <!-- 10 -->
      <g transform="translate(763.968606 462.075141)scale(0.1 -0.1)">
       <defs>
        <path id="DejaVuSans-31" d="M 794 531 
L 1825 531 
L 1825 4091 
L 703 3866 
L 703 4441 
L 1819 4666 
L 2450 4666 
L 2450 531 
L 3481 531 
L 3481 0 
L 794 0 
L 794 531 
z
" transform="scale(0.015625)"/>
       </defs>
       <use xlink:href="#DejaVuSans-31"/>
       <use xlink:href="#DejaVuSans-30" x="63.623047"/>
      </g>
     </g>
    </g>
   </g>
   <g id="matplotlib.axis_2">
    <g id="ytick_1">
     <g id="line2d_7">
      <defs>
       <path id="mdf94bcf901" d="M 0 0 
L -3.5 0 
" style="stroke: #000000; stroke-width: 0.8"/>
      </defs>
      <g>
       <use xlink:href="#mdf94bcf901" x="57.9975" y="384.857836" style="stroke: #000000; stroke-width: 0.8"/>
      </g>
     </g>
     <g id="text_7">
      <!-- −1 -->
      <g transform="translate(36.255313 388.657054)scale(0.1 -0.1)">
       <defs>
        <path id="DejaVuSans-2212" d="M 678 2272 
L 4684 2272 
L 4684 1741 
L 678 1741 
L 678 2272 
z
" transform="scale(0.015625)"/>
       </defs>
       <use xlink:href="#DejaVuSans-2212"/>
       <use xlink:href="#DejaVuSans-31" x="83.789062"/>
      </g>
     </g>
    </g>
    <g id="ytick_2">
     <g id="line2d_8">
      <g>
       <use xlink:href="#mdf94bcf901" x="57.9975" y="317.398932" style="stroke: #000000; stroke-width: 0.8"/>
      </g>
     </g>
     <g id="text_8">
      <!-- 0 -->
      <g transform="translate(44.635 321.198151)scale(0.1 -0.1)">
       <use xlink:href="#DejaVuSans-30"/>
      </g>
     </g>
    </g>
    <g id="ytick_3">
     <g id="line2d_9">
      <g>
       <use xlink:href="#mdf94bcf901" x="57.9975" y="249.940029" style="stroke: #000000; stroke-width: 0.8"/>
      </g>
     </g>
     <g id="text_9">
      <!-- 1 -->
      <g transform="translate(44.635 253.739248)scale(0.1 -0.1)">
       <use xlink:href="#DejaVuSans-31"/>
      </g>
     </g>
    </g>
    <g id="ytick_4">
     <g id="line2d_10">
      <g>
       <use xlink:href="#mdf94bcf901" x="57.9975" y="182.481126" style="stroke: #000000; stroke-width: 0.8"/>
      </g>
     </g>
     <g id="text_10">
      <!-- 2 -->
      <g transform="translate(44.635 186.280344)scale(0.1 -0.1)">
       <use xlink:href="#DejaVuSans-32"/>
      </g>
     </g>
    </g>
    <g id="ytick_5">
     <g id="line2d_11">
      <g>
       <use xlink:href="#mdf94bcf901" x="57.9975" y="115.022222" style="stroke: #000000; stroke-width: 0.8"/>
      </g>
     </g>
     <g id="text_11">
      <!-- 3 -->
      <g transform="translate(44.635 118.821441)scale(0.1 -0.1)">
       <defs>
        <path id="DejaVuSans-33" d="M 2597 2516 
Q 3050 2419 3304 2112 
Q 3559 1806 3559 1356 
Q 3559 666 3084 287 
Q 2609 -91 1734 -91 
Q 1441 -91 1130 -33 
Q 819 25 488 141 
L 488 750 
Q 750 597 1062 519 
Q 1375 441 1716 441 
Q 2309 441 2620 675 
Q 2931 909 2931 1356 
Q 2931 1769 2642 2001 
Q 2353 2234 1838 2234 
L 1294 2234 
L 1294 2753 
L 1863 2753 
Q 2328 2753 2575 2939 
Q 2822 3125 2822 3475 
Q 2822 3834 2567 4026 
Q 2313 4219 1838 4219 
Q 1578 4219 1281 4162 
Q 984 4106 628 3988 
L 628 4550 
Q 988 4650 1302 4700 
Q 1616 4750 1894 4750 
Q 2613 4750 3031 4423 
Q 3450 4097 3450 3541 
Q 3450 3153 3228 2886 
Q 3006 2619 2597 2516 
z
" transform="scale(0.015625)"/>
       </defs>
       <use xlink:href="#DejaVuSans-33"/>
      </g>
     </g>
    </g>
   </g>
   <g id="line2d_12">
    <path d="M 95.742072 317.398932 
L 767.764091 376.193241 
" clip-path="url(#pede8918f25)" style="fill: none; stroke-dasharray: 9.6,2.4,1.5,2.4; stroke-dashoffset: 0; stroke: #cd5c5c; stroke-width: 1.5"/>
   </g>
   <g id="line2d_13">
    <path d="M 767.764091 376.193241 
L 467.705955 322.854921 
L 233.086191 295.556693 
L 95.742072 317.398932 
L 329.773892 351.417381 
L 767.764091 376.193241 
" clip-path="url(#pede8918f25)" style="fill: none; stroke-dasharray: 1.5,2.475; stroke-dashoffset: 0; stroke: #000000; stroke-width: 1.5"/>
    <defs>
     <path id="mda4eccff03" d="M -3 3 
L 3 -3 
M -3 -3 
L 3 3 
" style="stroke: #000000"/>
    </defs>
    <g clip-path="url(#pede8918f25)">
     <use xlink:href="#mda4eccff03" x="767.764091" y="376.193241" style="stroke: #000000"/>
     <use xlink:href="#mda4eccff03" x="467.705955" y="322.854921" style="stroke: #000000"/>
     <use xlink:href="#mda4eccff03" x="233.086191" y="295.556693" style="stroke: #000000"/>
     <use xlink:href="#mda4eccff03" x="95.742072" y="317.398932" style="stroke: #000000"/>
     <use xlink:href="#mda4eccff03" x="329.773892" y="351.417381" style="stroke: #000000"/>
     <use xlink:href="#mda4eccff03" x="767.764091" y="376.193241" style="stroke: #000000"/>
    </g>
   </g>
   <g id="line2d_14">
    <path d="M 767.764091 376.193241 
L 600.373903 355.64031 
L 493.674492 306.447947 
L 497.688722 318.106117 
L 467.705955 322.854921 
L 431.06035 328.659015 
L 448.416717 308.692798 
L 301.464279 287.995683 
L 244.292699 299.922965 
L 246.526631 296.732579 
L 233.086191 295.556693 
L 219.645751 294.380807 
L 221.29174 297.910642 
L 126.224409 282.247913 
L 91.795909 285.260016 
L 95.742072 317.398932 
L 98.372847 338.824876 
L 114.56228 344.717348 
L 197.427289 316.137748 
L 277.813636 303.588825 
L 269.95965 337.608175 
L 329.773892 351.417381 
L 355.408567 357.335612 
L 359.373175 351.230652 
L 485.514843 351.499631 
L 565.664731 365.601662 
L 767.764091 376.193241 
" clip-path="url(#pede8918f25)" style="fill: none; stroke-dasharray: 5.55,2.4; stroke-dashoffset: 0; stroke: #808080; stroke-width: 1.5"/>
    <defs>
     <path id="m49ddd4a955" d="M 0 -3 
L -0.673542 -0.927051 
L -2.85317 -0.927051 
L -1.089814 0.354102 
L -1.763356 2.427051 
L -0 1.145898 
L 1.763356 2.427051 
L 1.089814 0.354102 
L 2.85317 -0.927051 
L 0.673542 -0.927051 
z
" style="stroke: #808080; stroke-linejoin: bevel"/>
    </defs>
    <g clip-path="url(#pede8918f25)">
     <use xlink:href="#m49ddd4a955" x="767.764091" y="376.193241" style="fill: #808080; stroke: #808080; stroke-linejoin: bevel"/>
     <use xlink:href="#m49ddd4a955" x="600.373903" y="355.64031" style="fill: #808080; stroke: #808080; stroke-linejoin: bevel"/>
     <use xlink:href="#m49ddd4a955" x="493.674492" y="306.447947" style="fill: #808080; stroke: #808080; stroke-linejoin: bevel"/>
     <use xlink:href="#m49ddd4a955" x="497.688722" y="318.106117" style="fill: #808080; stroke: #808080; stroke-linejoin: bevel"/>
     <use xlink:href="#m49ddd4a955" x="467.705955" y="322.854921" style="fill: #808080; stroke: #808080; stroke-linejoin: bevel"/>
     <use xlink:href="#m49ddd4a955" x="431.06035" y="328.659015" style="fill: #808080; stroke: #808080; stroke-linejoin: bevel"/>
     <use xlink:href="#m49ddd4a955" x="448.416717" y="308.692798" style="fill: #808080; stroke: #808080; stroke-linejoin: bevel"/>
     <use xlink:href="#m49ddd4a955" x="301.464279" y="287.995683" style="fill: #808080; stroke: #808080; stroke-linejoin: bevel"/>
     <use xlink:href="#m49ddd4a955" x="244.292699" y="299.922965" style="fill: #808080; stroke: #808080; stroke-linejoin: bevel"/>
     <use xlink:href="#m49ddd4a955" x="246.526631" y="296.732579" style="fill: #808080; stroke: #808080; stroke-linejoin: bevel"/>
     <use xlink:href="#m49ddd4a955" x="233.086191" y="295.556693" style="fill: #808080; stroke: #808080; stroke-linejoin: bevel"/>
     <use xlink:href="#m49ddd4a955" x="219.645751" y="294.380807" style="fill: #808080; stroke: #808080; stroke-linejoin: bevel"/>
     <use xlink:href="#m49ddd4a955" x="221.29174" y="297.910642" style="fill: #808080; stroke: #808080; stroke-linejoin: bevel"/>
     <use xlink:href="#m49ddd4a955" x="126.224409" y="282.247913" style="fill: #808080; stroke: #808080; stroke-linejoin: bevel"/>
     <use xlink:href="#m49ddd4a955" x="91.795909" y="285.260016" style="fill: #808080; stroke: #808080; stroke-linejoin: bevel"/>
     <use xlink:href="#m49ddd4a955" x="95.742072" y="317.398932" style="fill: #808080; stroke: #808080; stroke-linejoin: bevel"/>
     <use xlink:href="#m49ddd4a955" x="98.372847" y="338.824876" style="fill: #808080; stroke: #808080; stroke-linejoin: bevel"/>
     <use xlink:href="#m49ddd4a955" x="114.56228" y="344.717348" style="fill: #808080; stroke: #808080; stroke-linejoin: bevel"/>
     <use xlink:href="#m49ddd4a955" x="197.427289" y="316.137748" style="fill: #808080; stroke: #808080; stroke-linejoin: bevel"/>
     <use xlink:href="#m49ddd4a955" x="277.813636" y="303.588825" style="fill: #808080; stroke: #808080; stroke-linejoin: bevel"/>
     <use xlink:href="#m49ddd4a955" x="269.95965" y="337.608175" style="fill: #808080; stroke: #808080; stroke-linejoin: bevel"/>
     <use xlink:href="#m49ddd4a955" x="329.773892" y="351.417381" style="fill: #808080; stroke: #808080; stroke-linejoin: bevel"/>
     <use xlink:href="#m49ddd4a955" x="355.408567" y="357.335612" style="fill: #808080; stroke: #808080; stroke-linejoin: bevel"/>
     <use xlink:href="#m49ddd4a955" x="359.373175" y="351.230652" style="fill: #808080; stroke: #808080; stroke-linejoin: bevel"/>
     <use xlink:href="#m49ddd4a955" x="485.514843" y="351.499631" style="fill: #808080; stroke: #808080; stroke-linejoin: bevel"/>
     <use xlink:href="#m49ddd4a955" x="565.664731" y="365.601662" style="fill: #808080; stroke: #808080; stroke-linejoin: bevel"/>
     <use xlink:href="#m49ddd4a955" x="767.764091" y="376.193241" style="fill: #808080; stroke: #808080; stroke-linejoin: bevel"/>
    </g>
   </g>
   <g id="line2d_15">
    <path d="M 767.764091 376.193241 
L 761.038209 375.345654 
L 754.387844 374.465193 
L 747.814159 373.554011 
L 741.318271 372.614226 
L 734.901247 371.647911 
L 728.564105 370.657104 
L 722.307814 369.643803 
L 716.133296 368.609966 
L 710.041423 367.557511 
L 704.033019 366.488318 
L 698.108859 365.404227 
L 692.269669 364.307039 
L 686.516127 363.198516 
L 680.848862 362.080381 
L 675.268456 360.954315 
L 669.775439 359.821965 
L 664.370294 358.684933 
L 659.053457 357.544784 
L 653.825313 356.403046 
L 648.6862 355.261205 
L 643.636405 354.120708 
L 638.676169 352.982962 
L 633.805683 351.849338 
L 629.02509 350.721164 
L 624.334484 349.599731 
L 619.733909 348.48629 
L 615.223363 347.382052 
L 610.802794 346.288189 
L 606.4721 345.205835 
L 602.231134 344.136084 
L 598.079695 343.07999 
L 594.017539 342.038568 
L 590.044369 341.012795 
L 586.159842 340.003606 
L 582.363566 339.011899 
L 578.655098 338.038533 
L 575.033949 337.084325 
L 571.499581 336.150056 
L 568.051407 335.236466 
L 564.688789 334.344256 
L 561.411045 333.474087 
L 558.21744 332.626581 
L 555.107194 331.802322 
L 552.079475 331.001853 
L 549.133404 330.225679 
L 546.268054 329.474266 
L 543.482449 328.748038 
L 540.775562 328.047382 
L 538.146321 327.372647 
L 535.593603 326.72414 
L 533.116237 326.102129 
L 530.713004 325.506844 
L 528.382634 324.938475 
L 526.123811 324.397174 
L 523.93517 323.883051 
L 521.815296 323.39618 
L 519.762726 322.936592 
L 517.775948 322.504282 
L 515.853403 322.099205 
L 513.993481 321.721274 
L 512.194524 321.370367 
L 510.454828 321.04632 
L 508.772636 320.74893 
L 507.146145 320.477955 
L 505.573503 320.233114 
L 504.052809 320.014086 
L 502.582114 319.820511 
L 501.159419 319.65199 
L 499.782678 319.508086 
L 498.449795 319.388319 
L 497.158627 319.292173 
L 495.90698 319.219092 
L 494.692613 319.16848 
L 493.513235 319.139702 
L 492.36651 319.132085 
L 491.250048 319.144913 
L 490.161413 319.177436 
L 489.098123 319.228861 
L 488.057641 319.298356 
L 487.037388 319.38505 
L 486.034733 319.488035 
L 485.046995 319.606361 
L 484.071447 319.739039 
L 483.105313 319.885041 
L 482.145766 320.043301 
L 481.189935 320.212712 
L 480.234895 320.392129 
L 479.277675 320.580366 
L 478.315257 320.776199 
L 477.34457 320.978366 
L 476.362499 321.185562 
L 475.365877 321.396447 
L 474.351489 321.609638 
L 473.316073 321.823716 
L 472.256318 322.037219 
L 471.168861 322.24865 
L 470.050295 322.456469 
L 468.897162 322.659098 
L 467.705955 322.854921 
" clip-path="url(#pede8918f25)" style="fill: none; stroke: #6495ed; stroke-width: 1.5; stroke-linecap: square"/>
   </g>
   <g id="line2d_16">
    <path d="M 467.705955 322.854921 
L 465.56323 323.167761 
L 463.55982 323.404834 
L 461.67131 323.569275 
L 459.874942 323.664236 
L 458.149562 323.692883 
L 456.475562 323.658386 
L 454.834828 323.563915 
L 453.210685 323.412634 
L 451.587849 323.207695 
L 449.95237 322.952233 
L 448.291584 322.649359 
L 446.594064 322.30216 
L 444.849568 321.913687 
L 443.048992 321.486956 
L 441.184323 321.024941 
L 439.248589 320.53057 
L 437.235817 320.00672 
L 435.140983 319.456215 
L 432.959972 318.881821 
L 430.689529 318.286243 
L 428.327221 317.672119 
L 425.871389 317.042022 
L 423.321111 316.398451 
L 420.67616 315.743831 
L 417.936961 315.080512 
L 415.104556 314.410764 
L 412.180562 313.736773 
L 409.167133 313.060643 
L 406.066927 312.384393 
L 402.883065 311.709953 
L 399.619097 311.039162 
L 396.278969 310.37377 
L 392.866986 309.715435 
L 389.38778 309.065722 
L 385.846279 308.426099 
L 382.247672 307.797943 
L 378.597381 307.182532 
L 374.901028 306.581051 
L 371.16441 305.994588 
L 367.393464 305.424133 
L 363.594245 304.870583 
L 359.772894 304.334738 
L 355.935614 303.817302 
L 352.088646 303.318888 
L 348.238241 302.840011 
L 344.390636 302.381096 
L 340.552033 301.942478 
L 336.728574 301.524401 
L 332.926321 301.127019 
L 329.151233 300.750402 
L 325.409148 300.394536 
L 321.705762 300.059323 
L 318.046608 299.744586 
L 314.437042 299.45007 
L 310.882226 299.175446 
L 307.387105 298.920312 
L 303.9564 298.684198 
L 300.594585 298.466569 
L 297.305878 298.266826 
L 294.094228 298.084312 
L 290.963296 297.918317 
L 287.916451 297.768076 
L 284.956753 297.632782 
L 282.086945 297.511581 
L 279.309445 297.403584 
L 276.626331 297.307868 
L 274.03934 297.22348 
L 271.549858 297.149445 
L 269.158911 297.084769 
L 266.867161 297.028446 
L 264.674904 296.979461 
L 262.582059 296.936798 
L 260.58817 296.899447 
L 258.6924 296.866405 
L 256.893533 296.836689 
L 255.189968 296.809337 
L 253.579719 296.783417 
L 252.060419 296.758035 
L 250.629318 296.732339 
L 249.283285 296.705528 
L 248.018812 296.676859 
L 246.832016 296.645657 
L 245.718642 296.611317 
L 244.67407 296.573318 
L 243.69332 296.531226 
L 242.771058 296.484707 
L 241.901604 296.43353 
L 241.078936 296.377583 
L 240.296705 296.316873 
L 239.548238 296.251543 
L 238.826555 296.181876 
L 238.124373 296.108306 
L 237.434122 296.031428 
L 236.747954 295.952006 
L 236.057763 295.870986 
L 235.35519 295.789502 
L 234.631644 295.708891 
L 233.878315 295.630699 
L 233.086191 295.556693 
" clip-path="url(#pede8918f25)" style="fill: none; stroke: #6495ed; stroke-width: 1.5; stroke-linecap: square"/>
   </g>
   <g id="line2d_17">
    <path d="M 233.086191 295.556693 
L 232.421635 295.501863 
L 231.781147 295.455202 
L 231.158309 295.415348 
L 230.547031 295.381011 
L 229.94154 295.350977 
L 229.336379 295.324103 
L 228.726397 295.299319 
L 228.106746 295.275625 
L 227.472875 295.25209 
L 226.820522 295.227851 
L 226.145713 295.202113 
L 225.444751 295.174146 
L 224.714215 295.143284 
L 223.950951 295.108927 
L 223.152069 295.070535 
L 222.314934 295.027632 
L 221.437163 294.979799 
L 220.516621 294.92668 
L 219.551409 294.867973 
L 218.539864 294.803436 
L 217.480554 294.732883 
L 216.372265 294.656179 
L 215.214006 294.573246 
L 214.004992 294.484058 
L 212.744649 294.388638 
L 211.4326 294.287062 
L 210.068664 294.179454 
L 208.652849 294.065984 
L 207.185346 293.946872 
L 205.666523 293.822381 
L 204.096922 293.692821 
L 202.47725 293.558543 
L 200.808374 293.419941 
L 199.091317 293.277451 
L 197.327252 293.131549 
L 195.517494 292.982748 
L 193.663497 292.831601 
L 191.766849 292.678696 
L 189.82926 292.524659 
L 187.852567 292.370147 
L 185.838717 292.215852 
L 183.789771 292.062499 
L 181.707892 291.910843 
L 179.595341 291.761669 
L 177.454472 291.615791 
L 175.287727 291.474049 
L 173.09763 291.337312 
L 170.886777 291.206474 
L 168.657839 291.082452 
L 166.413548 290.966187 
L 164.156695 290.858641 
L 161.890127 290.760798 
L 159.616735 290.673662 
L 157.339454 290.598255 
L 155.061253 290.535616 
L 152.785133 290.486802 
L 150.514121 290.452883 
L 148.251259 290.434945 
L 145.999608 290.434087 
L 143.762231 290.451418 
L 141.542197 290.488061 
L 139.342572 290.545145 
L 137.166409 290.623809 
L 135.016749 290.725201 
L 132.896612 290.850474 
L 130.808992 291.000784 
L 128.75685 291.177295 
L 126.743112 291.381172 
L 124.770657 291.61358 
L 122.842318 291.875687 
L 120.960873 292.168661 
L 119.12904 292.493666 
L 117.349471 292.851865 
L 115.624745 293.244416 
L 113.957366 293.672473 
L 112.349754 294.137184 
L 110.804242 294.639689 
L 109.323066 295.181119 
L 107.908365 295.762598 
L 106.562172 296.385237 
L 105.286407 297.050135 
L 104.082875 297.758381 
L 102.953259 298.511047 
L 101.899112 299.309192 
L 100.921855 300.153857 
L 100.022768 301.046067 
L 99.202987 301.986827 
L 98.463497 302.977125 
L 97.805126 304.017926 
L 97.228542 305.110173 
L 96.734241 306.254787 
L 96.32255 307.452665 
L 95.993616 308.704678 
L 95.747398 310.011672 
L 95.583669 311.374464 
L 95.502002 312.793842 
L 95.501772 314.270566 
L 95.582145 315.805364 
L 95.742072 317.398932 
" clip-path="url(#pede8918f25)" style="fill: none; stroke: #6495ed; stroke-width: 1.5; stroke-linecap: square"/>
   </g>
   <g id="line2d_18">
    <path d="M 95.742072 317.398932 
L 95.923339 318.673322 
L 96.152413 319.897972 
L 96.435184 321.070924 
L 96.777102 322.190463 
L 97.183184 323.255116 
L 97.658021 324.263642 
L 98.205787 325.215028 
L 98.830247 326.10848 
L 99.534769 326.943417 
L 100.322329 327.719464 
L 101.195522 328.436446 
L 102.156569 329.094382 
L 103.20733 329.693476 
L 104.349311 330.234112 
L 105.583673 330.716847 
L 106.911241 331.142406 
L 108.332518 331.51167 
L 109.847688 331.825678 
L 111.456633 332.085612 
L 113.158938 332.292794 
L 114.953902 332.448681 
L 116.840552 332.554855 
L 118.817647 332.613021 
L 120.883695 332.624993 
L 123.036959 332.592696 
L 125.27547 332.518155 
L 127.597037 332.403485 
L 129.999258 332.250894 
L 132.479532 332.062667 
L 135.035069 331.841164 
L 137.662902 331.588814 
L 140.359899 331.308107 
L 143.122772 331.001586 
L 145.948092 330.671845 
L 148.832301 330.321517 
L 151.771717 329.953274 
L 154.762558 329.569815 
L 157.800941 329.17386 
L 160.882906 328.768148 
L 164.004419 328.355425 
L 167.161391 327.938444 
L 170.349688 327.51995 
L 173.565142 327.102683 
L 176.803568 326.689363 
L 180.060774 326.282692 
L 183.332573 325.885339 
L 186.6148 325.499942 
L 189.903324 325.129094 
L 193.194057 324.775342 
L 196.482975 324.44118 
L 199.766127 324.129041 
L 203.039648 323.841289 
L 206.299776 323.580218 
L 209.542864 323.348041 
L 212.765396 323.146887 
L 215.963998 322.978791 
L 219.135456 322.845693 
L 222.276727 322.749424 
L 225.384957 322.69171 
L 228.457494 322.674155 
L 231.491902 322.698243 
L 234.485976 322.765328 
L 237.437761 322.876628 
L 240.345562 323.03322 
L 243.20796 323.236033 
L 246.023833 323.485841 
L 248.792363 323.783259 
L 251.513058 324.128734 
L 254.185766 324.522543 
L 256.81069 324.964781 
L 259.388405 325.455361 
L 261.919874 325.994003 
L 264.406461 326.580231 
L 266.849956 327.213365 
L 269.25258 327.892516 
L 271.61701 328.616581 
L 273.946395 329.384234 
L 276.244366 330.19392 
L 278.515062 331.043853 
L 280.763141 331.932006 
L 282.993799 332.856107 
L 285.212788 333.813631 
L 287.426431 334.801797 
L 289.641644 335.817559 
L 291.865947 336.8576 
L 294.10749 337.91833 
L 296.375062 338.995875 
L 298.678116 340.086074 
L 301.026785 341.184473 
L 303.431897 342.286315 
L 305.904999 343.386542 
L 308.458369 344.479782 
L 311.105043 345.560344 
L 313.858823 346.622216 
L 316.734305 347.659055 
L 319.746894 348.664184 
L 322.912824 349.630585 
L 326.249174 350.55089 
L 329.773892 351.417381 
" clip-path="url(#pede8918f25)" style="fill: none; stroke: #6495ed; stroke-width: 1.5; stroke-linecap: square"/>
   </g>
   <g id="line2d_19">
    <path d="M 329.773892 351.417381 
L 331.047929 351.704203 
L 332.286416 351.96762 
L 333.497672 352.208749 
L 334.689646 352.428693 
L 335.869919 352.628541 
L 337.045716 352.809366 
L 338.223913 352.972229 
L 339.411046 353.118174 
L 340.613316 353.248232 
L 341.836603 353.363419 
L 343.086468 353.464733 
L 344.368166 353.55316 
L 345.686652 353.629667 
L 347.046587 353.69521 
L 348.452351 353.750724 
L 349.908049 353.79713 
L 351.417516 353.835334 
L 352.984332 353.866224 
L 354.611823 353.890671 
L 356.303074 353.90953 
L 358.060936 353.92364 
L 359.888031 353.93382 
L 361.786767 353.940875 
L 363.75934 353.94559 
L 365.807743 353.948734 
L 367.933779 353.951056 
L 370.139062 353.953289 
L 372.425031 353.956147 
L 374.792957 353.960326 
L 377.243947 353.966502 
L 379.778958 353.975335 
L 382.398801 353.987463 
L 385.104152 354.003508 
L 387.895559 354.024069 
L 390.773449 354.04973 
L 393.738138 354.081051 
L 396.789839 354.118576 
L 399.928667 354.162826 
L 403.154653 354.214303 
L 406.467748 354.273491 
L 409.867831 354.340849 
L 413.354721 354.416819 
L 416.928179 354.501821 
L 420.587922 354.596252 
L 424.333629 354.700492 
L 428.164948 354.814897 
L 432.081505 354.939801 
L 436.082915 355.075516 
L 440.168785 355.222336 
L 444.338725 355.380528 
L 448.592357 355.550339 
L 452.929322 355.731995 
L 457.349287 355.925696 
L 461.851955 356.131622 
L 466.437075 356.34993 
L 471.104446 356.580752 
L 475.853925 356.824198 
L 480.68544 357.080354 
L 485.598996 357.349283 
L 490.594679 357.631024 
L 495.672672 357.925593 
L 500.833255 358.232978 
L 506.076821 358.553148 
L 511.403876 358.886044 
L 516.815055 359.231583 
L 522.311125 359.589657 
L 527.892995 359.960134 
L 533.561725 360.342856 
L 539.318531 360.73764 
L 545.164797 361.144277 
L 551.102082 361.562531 
L 557.132126 361.992143 
L 563.256861 362.432827 
L 569.478418 362.884268 
L 575.799135 363.346129 
L 582.221565 363.818043 
L 588.748485 364.299617 
L 595.382905 364.790432 
L 602.128073 365.290041 
L 608.987486 365.79797 
L 615.964898 366.313718 
L 623.064325 366.836755 
L 630.290059 367.366523 
L 637.64667 367.902439 
L 645.139019 368.443889 
L 652.772264 368.990231 
L 660.551867 369.540795 
L 668.483605 370.094883 
L 676.573575 370.651765 
L 684.828206 371.210687 
L 693.254265 371.770861 
L 701.858862 372.331472 
L 710.649466 372.891676 
L 719.633906 373.450597 
L 728.820382 374.007331 
L 738.217474 374.560942 
L 747.834147 375.110467 
L 757.679765 375.654908 
L 767.764091 376.193241 
" clip-path="url(#pede8918f25)" style="fill: none; stroke: #6495ed; stroke-width: 1.5; stroke-linecap: square"/>
   </g>
   <g id="line2d_20">
    <path d="M 95.742072 317.398932 
L 135.915717 312.466229 
" clip-path="url(#pede8918f25)" style="fill: none; stroke: #ffd700; stroke-width: 1.5; stroke-linecap: square"/>
   </g>
   <g id="line2d_21">
    <path d="M 467.705955 322.854921 
L 451.876608 222.912363 
" clip-path="url(#pede8918f25)" style="fill: none; stroke: #ffd700; stroke-width: 1.5; stroke-linecap: square"/>
   </g>
   <g id="line2d_22">
    <path d="M 233.086191 295.556693 
L 227.20676 362.758895 
" clip-path="url(#pede8918f25)" style="fill: none; stroke: #ffd700; stroke-width: 1.5; stroke-linecap: square"/>
   </g>
   <g id="line2d_23">
    <path d="M 329.773892 351.417381 
L 360.123795 219.957508 
" clip-path="url(#pede8918f25)" style="fill: none; stroke: #ffd700; stroke-width: 1.5; stroke-linecap: square"/>
   </g>
   <g id="patch_7">
    <path d="M 57.9975 447.476703 
L 57.9975 67.780797 
" style="fill: none; stroke: #000000; stroke-width: 0.8; stroke-linejoin: miter; stroke-linecap: square"/>
   </g>
   <g id="patch_8">
    <path d="M 801.5625 447.476703 
L 801.5625 67.780797 
" style="fill: none; stroke: #000000; stroke-width: 0.8; stroke-linejoin: miter; stroke-linecap: square"/>
   </g>
   <g id="patch_9">
    <path d="M 57.9975 447.476703 
L 801.5625 447.476703 
" style="fill: none; stroke: #000000; stroke-width: 0.8; stroke-linejoin: miter; stroke-linecap: square"/>
   </g>
   <g id="patch_10">
    <path d="M 57.9975 67.780797 
L 801.5625 67.780797 
" style="fill: none; stroke: #000000; stroke-width: 0.8; stroke-linejoin: miter; stroke-linecap: square"/>
   </g>
   <g id="legend_1">
    <g id="patch_11">
     <path d="M 653.946875 149.171422 
L 794.5625 149.171422 
Q 796.5625 149.171422 796.5625 147.171422 
L 796.5625 74.780797 
Q 796.5625 72.780797 794.5625 72.780797 
L 653.946875 72.780797 
Q 651.946875 72.780797 651.946875 74.780797 
L 651.946875 147.171422 
Q 651.946875 149.171422 653.946875 149.171422 
z
" style="fill: #ffffff; opacity: 0.8; stroke: #cccccc; stroke-linejoin: miter"/>
    </g>
    <g id="line2d_24">
     <path d="M 655.946875 80.879234 
L 665.946875 80.879234 
L 675.946875 80.879234 
" style="fill: none; stroke-dasharray: 9.6,2.4,1.5,2.4; stroke-dashoffset: 0; stroke: #cd5c5c; stroke-width: 1.5"/>
    </g>
    <g id="text_12">
     <!-- chordline -->
     <g transform="translate(683.946875 84.379234)scale(0.1 -0.1)">
      <defs>
       <path id="DejaVuSans-63" d="M 3122 3366 
L 3122 2828 
Q 2878 2963 2633 3030 
Q 2388 3097 2138 3097 
Q 1578 3097 1268 2742 
Q 959 2388 959 1747 
Q 959 1106 1268 751 
Q 1578 397 2138 397 
Q 2388 397 2633 464 
Q 2878 531 3122 666 
L 3122 134 
Q 2881 22 2623 -34 
Q 2366 -91 2075 -91 
Q 1284 -91 818 406 
Q 353 903 353 1747 
Q 353 2603 823 3093 
Q 1294 3584 2113 3584 
Q 2378 3584 2631 3529 
Q 2884 3475 3122 3366 
z
" transform="scale(0.015625)"/>
       <path id="DejaVuSans-68" d="M 3513 2113 
L 3513 0 
L 2938 0 
L 2938 2094 
Q 2938 2591 2744 2837 
Q 2550 3084 2163 3084 
Q 1697 3084 1428 2787 
Q 1159 2491 1159 1978 
L 1159 0 
L 581 0 
L 581 4863 
L 1159 4863 
L 1159 2956 
Q 1366 3272 1645 3428 
Q 1925 3584 2291 3584 
Q 2894 3584 3203 3211 
Q 3513 2838 3513 2113 
z
" transform="scale(0.015625)"/>
       <path id="DejaVuSans-6f" d="M 1959 3097 
Q 1497 3097 1228 2736 
Q 959 2375 959 1747 
Q 959 1119 1226 758 
Q 1494 397 1959 397 
Q 2419 397 2687 759 
Q 2956 1122 2956 1747 
Q 2956 2369 2687 2733 
Q 2419 3097 1959 3097 
z
M 1959 3584 
Q 2709 3584 3137 3096 
Q 3566 2609 3566 1747 
Q 3566 888 3137 398 
Q 2709 -91 1959 -91 
Q 1206 -91 779 398 
Q 353 888 353 1747 
Q 353 2609 779 3096 
Q 1206 3584 1959 3584 
z
" transform="scale(0.015625)"/>
       <path id="DejaVuSans-72" d="M 2631 2963 
Q 2534 3019 2420 3045 
Q 2306 3072 2169 3072 
Q 1681 3072 1420 2755 
Q 1159 2438 1159 1844 
L 1159 0 
L 581 0 
L 581 3500 
L 1159 3500 
L 1159 2956 
Q 1341 3275 1631 3429 
Q 1922 3584 2338 3584 
Q 2397 3584 2469 3576 
Q 2541 3569 2628 3553 
L 2631 2963 
z
" transform="scale(0.015625)"/>
       <path id="DejaVuSans-64" d="M 2906 2969 
L 2906 4863 
L 3481 4863 
L 3481 0 
L 2906 0 
L 2906 525 
Q 2725 213 2448 61 
Q 2172 -91 1784 -91 
Q 1150 -91 751 415 
Q 353 922 353 1747 
Q 353 2572 751 3078 
Q 1150 3584 1784 3584 
Q 2172 3584 2448 3432 
Q 2725 3281 2906 2969 
z
M 947 1747 
Q 947 1113 1208 752 
Q 1469 391 1925 391 
Q 2381 391 2643 752 
Q 2906 1113 2906 1747 
Q 2906 2381 2643 2742 
Q 2381 3103 1925 3103 
Q 1469 3103 1208 2742 
Q 947 2381 947 1747 
z
" transform="scale(0.015625)"/>
       <path id="DejaVuSans-6c" d="M 603 4863 
L 1178 4863 
L 1178 0 
L 603 0 
L 603 4863 
z
" transform="scale(0.015625)"/>
       <path id="DejaVuSans-69" d="M 603 3500 
L 1178 3500 
L 1178 0 
L 603 0 
L 603 3500 
z
M 603 4863 
L 1178 4863 
L 1178 4134 
L 603 4134 
L 603 4863 
z
" transform="scale(0.015625)"/>
       <path id="DejaVuSans-6e" d="M 3513 2113 
L 3513 0 
L 2938 0 
L 2938 2094 
Q 2938 2591 2744 2837 
Q 2550 3084 2163 3084 
Q 1697 3084 1428 2787 
Q 1159 2491 1159 1978 
L 1159 0 
L 581 0 
L 581 3500 
L 1159 3500 
L 1159 2956 
Q 1366 3272 1645 3428 
Q 1925 3584 2291 3584 
Q 2894 3584 3203 3211 
Q 3513 2838 3513 2113 
z
" transform="scale(0.015625)"/>
       <path id="DejaVuSans-65" d="M 3597 1894 
L 3597 1613 
L 953 1613 
Q 991 1019 1311 708 
Q 1631 397 2203 397 
Q 2534 397 2845 478 
Q 3156 559 3463 722 
L 3463 178 
Q 3153 47 2828 -22 
Q 2503 -91 2169 -91 
Q 1331 -91 842 396 
Q 353 884 353 1716 
Q 353 2575 817 3079 
Q 1281 3584 2069 3584 
Q 2775 3584 3186 3129 
Q 3597 2675 3597 1894 
z
M 3022 2063 
Q 3016 2534 2758 2815 
Q 2500 3097 2075 3097 
Q 1594 3097 1305 2825 
Q 1016 2553 972 2059 
L 3022 2063 
z
" transform="scale(0.015625)"/>
      </defs>
      <use xlink:href="#DejaVuSans-63"/>
      <use xlink:href="#DejaVuSans-68" x="54.980469"/>
      <use xlink:href="#DejaVuSans-6f" x="118.359375"/>
      <use xlink:href="#DejaVuSans-72" x="179.541016"/>
      <use xlink:href="#DejaVuSans-64" x="218.904297"/>
      <use xlink:href="#DejaVuSans-6c" x="282.380859"/>
      <use xlink:href="#DejaVuSans-69" x="310.164062"/>
      <use xlink:href="#DejaVuSans-6e" x="337.947266"/>
      <use xlink:href="#DejaVuSans-65" x="401.326172"/>
     </g>
    </g>
    <g id="line2d_25">
     <path d="M 655.946875 95.557359 
L 665.946875 95.557359 
L 675.946875 95.557359 
" style="fill: none; stroke-dasharray: 1.5,2.475; stroke-dashoffset: 0; stroke: #000000; stroke-width: 1.5"/>
     <g>
      <use xlink:href="#mda4eccff03" x="665.946875" y="95.557359" style="stroke: #000000"/>
     </g>
    </g>
    <g id="text_13">
     <!-- anchor point skeleton -->
     <g transform="translate(683.946875 99.057359)scale(0.1 -0.1)">
      <defs>
       <path id="DejaVuSans-61" d="M 2194 1759 
Q 1497 1759 1228 1600 
Q 959 1441 959 1056 
Q 959 750 1161 570 
Q 1363 391 1709 391 
Q 2188 391 2477 730 
Q 2766 1069 2766 1631 
L 2766 1759 
L 2194 1759 
z
M 3341 1997 
L 3341 0 
L 2766 0 
L 2766 531 
Q 2569 213 2275 61 
Q 1981 -91 1556 -91 
Q 1019 -91 701 211 
Q 384 513 384 1019 
Q 384 1609 779 1909 
Q 1175 2209 1959 2209 
L 2766 2209 
L 2766 2266 
Q 2766 2663 2505 2880 
Q 2244 3097 1772 3097 
Q 1472 3097 1187 3025 
Q 903 2953 641 2809 
L 641 3341 
Q 956 3463 1253 3523 
Q 1550 3584 1831 3584 
Q 2591 3584 2966 3190 
Q 3341 2797 3341 1997 
z
" transform="scale(0.015625)"/>
       <path id="DejaVuSans-20" transform="scale(0.015625)"/>
       <path id="DejaVuSans-70" d="M 1159 525 
L 1159 -1331 
L 581 -1331 
L 581 3500 
L 1159 3500 
L 1159 2969 
Q 1341 3281 1617 3432 
Q 1894 3584 2278 3584 
Q 2916 3584 3314 3078 
Q 3713 2572 3713 1747 
Q 3713 922 3314 415 
Q 2916 -91 2278 -91 
Q 1894 -91 1617 61 
Q 1341 213 1159 525 
z
M 3116 1747 
Q 3116 2381 2855 2742 
Q 2594 3103 2138 3103 
Q 1681 3103 1420 2742 
Q 1159 2381 1159 1747 
Q 1159 1113 1420 752 
Q 1681 391 2138 391 
Q 2594 391 2855 752 
Q 3116 1113 3116 1747 
z
" transform="scale(0.015625)"/>
       <path id="DejaVuSans-74" d="M 1172 4494 
L 1172 3500 
L 2356 3500 
L 2356 3053 
L 1172 3053 
L 1172 1153 
Q 1172 725 1289 603 
Q 1406 481 1766 481 
L 2356 481 
L 2356 0 
L 1766 0 
Q 1100 0 847 248 
Q 594 497 594 1153 
L 594 3053 
L 172 3053 
L 172 3500 
L 594 3500 
L 594 4494 
L 1172 4494 
z
" transform="scale(0.015625)"/>
       <path id="DejaVuSans-73" d="M 2834 3397 
L 2834 2853 
Q 2591 2978 2328 3040 
Q 2066 3103 1784 3103 
Q 1356 3103 1142 2972 
Q 928 2841 928 2578 
Q 928 2378 1081 2264 
Q 1234 2150 1697 2047 
L 1894 2003 
Q 2506 1872 2764 1633 
Q 3022 1394 3022 966 
Q 3022 478 2636 193 
Q 2250 -91 1575 -91 
Q 1294 -91 989 -36 
Q 684 19 347 128 
L 347 722 
Q 666 556 975 473 
Q 1284 391 1588 391 
Q 1994 391 2212 530 
Q 2431 669 2431 922 
Q 2431 1156 2273 1281 
Q 2116 1406 1581 1522 
L 1381 1569 
Q 847 1681 609 1914 
Q 372 2147 372 2553 
Q 372 3047 722 3315 
Q 1072 3584 1716 3584 
Q 2034 3584 2315 3537 
Q 2597 3491 2834 3397 
z
" transform="scale(0.015625)"/>
       <path id="DejaVuSans-6b" d="M 581 4863 
L 1159 4863 
L 1159 1991 
L 2875 3500 
L 3609 3500 
L 1753 1863 
L 3688 0 
L 2938 0 
L 1159 1709 
L 1159 0 
L 581 0 
L 581 4863 
z
" transform="scale(0.015625)"/>
      </defs>
      <use xlink:href="#DejaVuSans-61"/>
      <use xlink:href="#DejaVuSans-6e" x="61.279297"/>
      <use xlink:href="#DejaVuSans-63" x="124.658203"/>
      <use xlink:href="#DejaVuSans-68" x="179.638672"/>
      <use xlink:href="#DejaVuSans-6f" x="243.017578"/>
      <use xlink:href="#DejaVuSans-72" x="304.199219"/>
      <use xlink:href="#DejaVuSans-20" x="345.3125"/>
      <use xlink:href="#DejaVuSans-70" x="377.099609"/>
      <use xlink:href="#DejaVuSans-6f" x="440.576172"/>
      <use xlink:href="#DejaVuSans-69" x="501.757812"/>
      <use xlink:href="#DejaVuSans-6e" x="529.541016"/>
      <use xlink:href="#DejaVuSans-74" x="592.919922"/>
      <use xlink:href="#DejaVuSans-20" x="632.128906"/>
      <use xlink:href="#DejaVuSans-73" x="663.916016"/>
      <use xlink:href="#DejaVuSans-6b" x="716.015625"/>
      <use xlink:href="#DejaVuSans-65" x="770.300781"/>
      <use xlink:href="#DejaVuSans-6c" x="831.824219"/>
      <use xlink:href="#DejaVuSans-65" x="859.607422"/>
      <use xlink:href="#DejaVuSans-74" x="921.130859"/>
      <use xlink:href="#DejaVuSans-6f" x="960.339844"/>
      <use xlink:href="#DejaVuSans-6e" x="1021.521484"/>
     </g>
    </g>
    <g id="line2d_26">
     <path d="M 655.946875 110.235484 
L 665.946875 110.235484 
L 675.946875 110.235484 
" style="fill: none; stroke-dasharray: 5.55,2.4; stroke-dashoffset: 0; stroke: #808080; stroke-width: 1.5"/>
     <g>
      <use xlink:href="#m49ddd4a955" x="665.946875" y="110.235484" style="fill: #808080; stroke: #808080; stroke-linejoin: bevel"/>
     </g>
    </g>
    <g id="text_14">
     <!-- control point skeleton -->
     <g transform="translate(683.946875 113.735484)scale(0.1 -0.1)">
      <use xlink:href="#DejaVuSans-63"/>
      <use xlink:href="#DejaVuSans-6f" x="54.980469"/>
      <use xlink:href="#DejaVuSans-6e" x="116.162109"/>
      <use xlink:href="#DejaVuSans-74" x="179.541016"/>
      <use xlink:href="#DejaVuSans-72" x="218.75"/>
      <use xlink:href="#DejaVuSans-6f" x="257.613281"/>
      <use xlink:href="#DejaVuSans-6c" x="318.794922"/>
      <use xlink:href="#DejaVuSans-20" x="346.578125"/>
      <use xlink:href="#DejaVuSans-70" x="378.365234"/>
      <use xlink:href="#DejaVuSans-6f" x="441.841797"/>
      <use xlink:href="#DejaVuSans-69" x="503.023438"/>
      <use xlink:href="#DejaVuSans-6e" x="530.806641"/>
      <use xlink:href="#DejaVuSans-74" x="594.185547"/>
      <use xlink:href="#DejaVuSans-20" x="633.394531"/>
      <use xlink:href="#DejaVuSans-73" x="665.181641"/>
      <use xlink:href="#DejaVuSans-6b" x="717.28125"/>
      <use xlink:href="#DejaVuSans-65" x="771.566406"/>
      <use xlink:href="#DejaVuSans-6c" x="833.089844"/>
      <use xlink:href="#DejaVuSans-65" x="860.873047"/>
      <use xlink:href="#DejaVuSans-74" x="922.396484"/>
      <use xlink:href="#DejaVuSans-6f" x="961.605469"/>
      <use xlink:href="#DejaVuSans-6e" x="1022.787109"/>
     </g>
    </g>
    <g id="line2d_27">
     <path d="M 655.946875 124.913609 
L 665.946875 124.913609 
L 675.946875 124.913609 
" style="fill: none; stroke: #6495ed; stroke-width: 1.5; stroke-linecap: square"/>
    </g>
    <g id="text_15">
     <!-- airfoil -->
     <g transform="translate(683.946875 128.413609)scale(0.1 -0.1)">
      <defs>
       <path id="DejaVuSans-66" d="M 2375 4863 
L 2375 4384 
L 1825 4384 
Q 1516 4384 1395 4259 
Q 1275 4134 1275 3809 
L 1275 3500 
L 2222 3500 
L 2222 3053 
L 1275 3053 
L 1275 0 
L 697 0 
L 697 3053 
L 147 3053 
L 147 3500 
L 697 3500 
L 697 3744 
Q 697 4328 969 4595 
Q 1241 4863 1831 4863 
L 2375 4863 
z
" transform="scale(0.015625)"/>
      </defs>
      <use xlink:href="#DejaVuSans-61"/>
      <use xlink:href="#DejaVuSans-69" x="61.279297"/>
      <use xlink:href="#DejaVuSans-72" x="89.0625"/>
      <use xlink:href="#DejaVuSans-66" x="130.175781"/>
      <use xlink:href="#DejaVuSans-6f" x="165.380859"/>
      <use xlink:href="#DejaVuSans-69" x="226.5625"/>
      <use xlink:href="#DejaVuSans-6c" x="254.345703"/>
     </g>
    </g>
    <g id="patch_12">
     <path d="M 655.946875 143.091734 
L 675.946875 143.091734 
L 675.946875 136.091734 
L 655.946875 136.091734 
L 655.946875 143.091734 
z
" style="fill: none; stroke: #ffd700; stroke-linejoin: miter"/>
    </g>
    <g id="text_16">
     <!-- R circle -->
     <g transform="translate(683.946875 143.091734)scale(0.1 -0.1)">
      <defs>
       <path id="DejaVuSans-52" d="M 2841 2188 
Q 3044 2119 3236 1894 
Q 3428 1669 3622 1275 
L 4263 0 
L 3584 0 
L 2988 1197 
Q 2756 1666 2539 1819 
Q 2322 1972 1947 1972 
L 1259 1972 
L 1259 0 
L 628 0 
L 628 4666 
L 2053 4666 
Q 2853 4666 3247 4331 
Q 3641 3997 3641 3322 
Q 3641 2881 3436 2590 
Q 3231 2300 2841 2188 
z
M 1259 4147 
L 1259 2491 
L 2053 2491 
Q 2509 2491 2742 2702 
Q 2975 2913 2975 3322 
Q 2975 3731 2742 3939 
Q 2509 4147 2053 4147 
L 1259 4147 
z
" transform="scale(0.015625)"/>
      </defs>
      <use xlink:href="#DejaVuSans-52"/>
      <use xlink:href="#DejaVuSans-20" x="69.482422"/>
      <use xlink:href="#DejaVuSans-63" x="101.269531"/>
      <use xlink:href="#DejaVuSans-69" x="156.25"/>
      <use xlink:href="#DejaVuSans-72" x="184.033203"/>
      <use xlink:href="#DejaVuSans-63" x="222.896484"/>
      <use xlink:href="#DejaVuSans-6c" x="277.876953"/>
      <use xlink:href="#DejaVuSans-65" x="305.660156"/>
     </g>
    </g>
   </g>
  </g>
  <g id="text_17">
   <!-- Airfoil: $c=10.000$, $\alpha=5.000^\circ$, $A=4.38374$ -->
   <g transform="translate(280.56 18.722925)scale(0.12 -0.12)">
    <defs>
     <path id="DejaVuSans-41" d="M 2188 4044 
L 1331 1722 
L 3047 1722 
L 2188 4044 
z
M 1831 4666 
L 2547 4666 
L 4325 0 
L 3669 0 
L 3244 1197 
L 1141 1197 
L 716 0 
L 50 0 
L 1831 4666 
z
" transform="scale(0.015625)"/>
     <path id="DejaVuSans-3a" d="M 750 794 
L 1409 794 
L 1409 0 
L 750 0 
L 750 794 
z
M 750 3309 
L 1409 3309 
L 1409 2516 
L 750 2516 
L 750 3309 
z
" transform="scale(0.015625)"/>
     <path id="DejaVuSans-Oblique-63" d="M 3431 3366 
L 3316 2797 
Q 3109 2947 2876 3022 
Q 2644 3097 2394 3097 
Q 2119 3097 1870 3000 
Q 1622 2903 1453 2725 
Q 1184 2453 1037 2087 
Q 891 1722 891 1331 
Q 891 859 1127 628 
Q 1363 397 1844 397 
Q 2081 397 2348 469 
Q 2616 541 2906 684 
L 2797 116 
Q 2547 13 2283 -39 
Q 2019 -91 1741 -91 
Q 1044 -91 669 257 
Q 294 606 294 1253 
Q 294 1797 489 2255 
Q 684 2713 1069 3078 
Q 1331 3328 1684 3456 
Q 2038 3584 2456 3584 
Q 2700 3584 2940 3529 
Q 3181 3475 3431 3366 
z
" transform="scale(0.015625)"/>
     <path id="DejaVuSans-3d" d="M 678 2906 
L 4684 2906 
L 4684 2381 
L 678 2381 
L 678 2906 
z
M 678 1631 
L 4684 1631 
L 4684 1100 
L 678 1100 
L 678 1631 
z
" transform="scale(0.015625)"/>
     <path id="DejaVuSans-2e" d="M 684 794 
L 1344 794 
L 1344 0 
L 684 0 
L 684 794 
z
" transform="scale(0.015625)"/>
     <path id="DejaVuSans-2c" d="M 750 794 
L 1409 794 
L 1409 256 
L 897 -744 
L 494 -744 
L 750 256 
L 750 794 
z
" transform="scale(0.015625)"/>
     <path id="DejaVuSans-Oblique-3b1" d="M 2619 1628 
L 2622 2350 
Q 2625 3088 2069 3091 
Q 1653 3094 1394 2747 
Q 1069 2319 959 1747 
Q 825 1059 994 731 
Q 1169 397 1547 397 
Q 1966 397 2319 1063 
L 2619 1628 
z
M 2166 3578 
Q 3141 3594 3128 2584 
Q 3128 2584 3616 3500 
L 4128 3500 
L 3119 1603 
L 3109 919 
Q 3109 766 3194 638 
Q 3291 488 3391 488 
L 3669 488 
L 3575 0 
L 3228 0 
Q 2934 0 2722 263 
Q 2622 394 2619 669 
Q 2416 334 2066 50 
Q 1900 -81 1453 -78 
Q 722 -72 456 397 
Q 184 884 353 1747 
Q 534 2675 1009 3097 
Q 1544 3569 2166 3578 
z
" transform="scale(0.015625)"/>
     <path id="DejaVuSans-35" d="M 691 4666 
L 3169 4666 
L 3169 4134 
L 1269 4134 
L 1269 2991 
Q 1406 3038 1543 3061 
Q 1681 3084 1819 3084 
Q 2600 3084 3056 2656 
Q 3513 2228 3513 1497 
Q 3513 744 3044 326 
Q 2575 -91 1722 -91 
Q 1428 -91 1123 -41 
Q 819 9 494 109 
L 494 744 
Q 775 591 1075 516 
Q 1375 441 1709 441 
Q 2250 441 2565 725 
Q 2881 1009 2881 1497 
Q 2881 1984 2565 2268 
Q 2250 2553 1709 2553 
Q 1456 2553 1204 2497 
Q 953 2441 691 2322 
L 691 4666 
z
" transform="scale(0.015625)"/>
     <path id="DejaVuSans-2218" d="M 2000 2619 
Q 1750 2619 1578 2445 
Q 1406 2272 1406 2022 
Q 1406 1775 1578 1605 
Q 1750 1435 2000 1435 
Q 2250 1435 2422 1605 
Q 2594 1775 2594 2022 
Q 2594 2269 2420 2444 
Q 2247 2619 2000 2619 
z
M 2000 3022 
Q 2200 3022 2384 2945 
Q 2569 2869 2703 2725 
Q 2847 2585 2919 2406 
Q 2991 2228 2991 2022 
Q 2991 1610 2702 1324 
Q 2413 1038 1994 1038 
Q 1572 1038 1290 1319 
Q 1009 1600 1009 2022 
Q 1009 2441 1296 2731 
Q 1584 3022 2000 3022 
z
" transform="scale(0.015625)"/>
     <path id="DejaVuSans-Oblique-41" d="M 2356 4666 
L 3072 4666 
L 3938 0 
L 3278 0 
L 3084 1197 
L 984 1197 
L 325 0 
L -341 0 
L 2356 4666 
z
M 2584 4044 
L 1275 1722 
L 2988 1722 
L 2584 4044 
z
" transform="scale(0.015625)"/>
     <path id="DejaVuSans-37" d="M 525 4666 
L 3525 4666 
L 3525 4397 
L 1831 0 
L 1172 0 
L 2766 4134 
L 525 4134 
L 525 4666 
z
" transform="scale(0.015625)"/>
    </defs>
    <use xlink:href="#DejaVuSans-41" transform="translate(0 0.015625)"/>
    <use xlink:href="#DejaVuSans-69" transform="translate(68.408203 0.015625)"/>
    <use xlink:href="#DejaVuSans-72" transform="translate(96.191406 0.015625)"/>
    <use xlink:href="#DejaVuSans-66" transform="translate(137.304688 0.015625)"/>
    <use xlink:href="#DejaVuSans-6f" transform="translate(172.509766 0.015625)"/>
    <use xlink:href="#DejaVuSans-69" transform="translate(233.691406 0.015625)"/>
    <use xlink:href="#DejaVuSans-6c" transform="translate(261.474609 0.015625)"/>
    <use xlink:href="#DejaVuSans-3a" transform="translate(289.257812 0.015625)"/>
    <use xlink:href="#DejaVuSans-20" transform="translate(322.949219 0.015625)"/>
    <use xlink:href="#DejaVuSans-Oblique-63" transform="translate(354.736328 0.015625)"/>
    <use xlink:href="#DejaVuSans-3d" transform="translate(429.199219 0.015625)"/>
    <use xlink:href="#DejaVuSans-31" transform="translate(532.470703 0.015625)"/>
    <use xlink:href="#DejaVuSans-30" transform="translate(596.09375 0.015625)"/>
    <use xlink:href="#DejaVuSans-2e" transform="translate(659.716797 0.015625)"/>
    <use xlink:href="#DejaVuSans-30" transform="translate(691.503906 0.015625)"/>
    <use xlink:href="#DejaVuSans-30" transform="translate(755.126953 0.015625)"/>
    <use xlink:href="#DejaVuSans-30" transform="translate(818.75 0.015625)"/>
    <use xlink:href="#DejaVuSans-2c" transform="translate(882.373047 0.015625)"/>
    <use xlink:href="#DejaVuSans-20" transform="translate(914.160156 0.015625)"/>
    <use xlink:href="#DejaVuSans-Oblique-3b1" transform="translate(945.947266 0.015625)"/>
    <use xlink:href="#DejaVuSans-3d" transform="translate(1031.347656 0.015625)"/>
    <use xlink:href="#DejaVuSans-35" transform="translate(1134.619141 0.015625)"/>
    <use xlink:href="#DejaVuSans-2e" transform="translate(1198.242188 0.015625)"/>
    <use xlink:href="#DejaVuSans-30" transform="translate(1230.029297 0.015625)"/>
    <use xlink:href="#DejaVuSans-30" transform="translate(1293.652344 0.015625)"/>
    <use xlink:href="#DejaVuSans-30" transform="translate(1357.275391 0.015625)"/>
    <use xlink:href="#DejaVuSans-2218" transform="translate(1435.493164 38.296875)scale(0.7)"/>
    <use xlink:href="#DejaVuSans-2c" transform="translate(1495.683594 0.015625)"/>
    <use xlink:href="#DejaVuSans-20" transform="translate(1527.470703 0.015625)"/>
    <use xlink:href="#DejaVuSans-Oblique-41" transform="translate(1559.257812 0.015625)"/>
    <use xlink:href="#DejaVuSans-3d" transform="translate(1647.148438 0.015625)"/>
    <use xlink:href="#DejaVuSans-34" transform="translate(1750.419922 0.015625)"/>
    <use xlink:href="#DejaVuSans-2e" transform="translate(1814.042969 0.015625)"/>
    <use xlink:href="#DejaVuSans-33" transform="translate(1845.830078 0.015625)"/>
    <use xlink:href="#DejaVuSans-38" transform="translate(1909.453125 0.015625)"/>
    <use xlink:href="#DejaVuSans-33" transform="translate(1973.076172 0.015625)"/>
    <use xlink:href="#DejaVuSans-37" transform="translate(2036.699219 0.015625)"/>
    <use xlink:href="#DejaVuSans-34" transform="translate(2100.322266 0.015625)"/>
   </g>
  </g>
 </g>
 <defs>
  <clipPath id="pede8918f25">
   <rect x="57.9975" y="67.780797" width="743.565" height="379.695906"/>
  </clipPath>
 </defs>
</svg>
