<?xml version="1.0" encoding="utf-8" standalone="no"?>
<!DOCTYPE svg PUBLIC "-//W3C//DTD SVG 1.1//EN"
  "http://www.w3.org/Graphics/SVG/1.1/DTD/svg11.dtd">
<svg xmlns:xlink="http://www.w3.org/1999/xlink" width="923.76pt" height="207.36pt" viewBox="0 0 923.76 207.36" xmlns="http://www.w3.org/2000/svg" version="1.1">
 <metadata>
  <rdf:RDF xmlns:dc="http://purl.org/dc/elements/1.1/" xmlns:cc="http://creativecommons.org/ns#" xmlns:rdf="http://www.w3.org/1999/02/22-rdf-syntax-ns#">
   <cc:Work>
    <dc:type rdf:resource="http://purl.org/dc/dcmitype/StillImage"/>
    <dc:date>2022-04-04T22:34:04.264309</dc:date>
    <dc:format>image/svg+xml</dc:format>
    <dc:creator>
     <cc:Agent>
      <dc:title>Matplotlib v3.5.1, https://matplotlib.org/</dc:title>
     </cc:Agent>
    </dc:creator>
   </cc:Work>
  </rdf:RDF>
 </metadata>
 <defs>
  <style type="text/css">*{stroke-linejoin: round; stroke-linecap: butt}</style>
 </defs>
 <g id="figure_1">
  <g id="patch_1">
   <path d="M 0 207.36 
L 923.76 207.36 
L 923.76 0 
L 0 0 
z
" style="fill: #ffffff"/>
  </g>
  <g id="axes_1">
   <g id="patch_2">
    <path d="M 96.666031 171.408582 
L 902.109375 171.408582 
L 902.109375 51.071418 
L 96.666031 51.071418 
z
" style="fill: #ffffff"/>
   </g>
   <g id="patch_3">
    <path d="M 158.175288 118.022447 
C 163.98968 118.022447 169.566713 115.712364 173.678109 111.600968 
C 177.789505 107.489572 180.099587 101.91254 180.099587 96.098148 
C 180.099587 90.283756 177.789505 84.706723 173.678109 80.595327 
C 169.566713 76.483931 163.98968 74.173849 158.175288 74.173849 
C 152.360896 74.173849 146.783864 76.483931 142.672468 80.595327 
C 138.561072 84.706723 136.250989 90.283756 136.250989 96.098148 
C 136.250989 101.91254 138.561072 107.489572 142.672468 111.600968 
C 146.783864 115.712364 152.360896 118.022447 158.175288 118.022447 
L 158.175288 118.022447 
z
" clip-path="url(#pcd2598f3fa)" style="fill: none; stroke: #ffd700; stroke-linejoin: miter"/>
   </g>
   <g id="matplotlib.axis_1">
    <g id="xtick_1">
     <g id="line2d_1">
      <defs>
       <path id="mff98fc7c4e" d="M 0 0 
L 0 3.5 
" style="stroke: #000000; stroke-width: 0.8"/>
      </defs>
      <g>
       <use xlink:href="#mff98fc7c4e" x="136.334418" y="171.408582" style="stroke: #000000; stroke-width: 0.8"/>
      </g>
     </g>
     <g id="text_1">
      <!-- 0.0 -->
      <g transform="translate(128.382856 186.007019)scale(0.1 -0.1)">
       <defs>
        <path id="DejaVuSans-30" d="M 2034 4250 
Q 1547 4250 1301 3770 
Q 1056 3291 1056 2328 
Q 1056 1369 1301 889 
Q 1547 409 2034 409 
Q 2525 409 2770 889 
Q 3016 1369 3016 2328 
Q 3016 3291 2770 3770 
Q 2525 4250 2034 4250 
z
M 2034 4750 
Q 2819 4750 3233 4129 
Q 3647 3509 3647 2328 
Q 3647 1150 3233 529 
Q 2819 -91 2034 -91 
Q 1250 -91 836 529 
Q 422 1150 422 2328 
Q 422 3509 836 4129 
Q 1250 4750 2034 4750 
z
" transform="scale(0.015625)"/>
        <path id="DejaVuSans-2e" d="M 684 794 
L 1344 794 
L 1344 0 
L 684 0 
L 684 794 
z
" transform="scale(0.015625)"/>
       </defs>
       <use xlink:href="#DejaVuSans-30"/>
       <use xlink:href="#DejaVuSans-2e" x="63.623047"/>
       <use xlink:href="#DejaVuSans-30" x="95.410156"/>
      </g>
     </g>
    </g>
    <g id="xtick_2">
     <g id="line2d_2">
      <g>
       <use xlink:href="#mff98fc7c4e" x="227.685663" y="171.408582" style="stroke: #000000; stroke-width: 0.8"/>
      </g>
     </g>
     <g id="text_2">
      <!-- 0.5 -->
      <g transform="translate(219.734101 186.007019)scale(0.1 -0.1)">
       <defs>
        <path id="DejaVuSans-35" d="M 691 4666 
L 3169 4666 
L 3169 4134 
L 1269 4134 
L 1269 2991 
Q 1406 3038 1543 3061 
Q 1681 3084 1819 3084 
Q 2600 3084 3056 2656 
Q 3513 2228 3513 1497 
Q 3513 744 3044 326 
Q 2575 -91 1722 -91 
Q 1428 -91 1123 -41 
Q 819 9 494 109 
L 494 744 
Q 775 591 1075 516 
Q 1375 441 1709 441 
Q 2250 441 2565 725 
Q 2881 1009 2881 1497 
Q 2881 1984 2565 2268 
Q 2250 2553 1709 2553 
Q 1456 2553 1204 2497 
Q 953 2441 691 2322 
L 691 4666 
z
" transform="scale(0.015625)"/>
       </defs>
       <use xlink:href="#DejaVuSans-30"/>
       <use xlink:href="#DejaVuSans-2e" x="63.623047"/>
       <use xlink:href="#DejaVuSans-35" x="95.410156"/>
      </g>
     </g>
    </g>
    <g id="xtick_3">
     <g id="line2d_3">
      <g>
       <use xlink:href="#mff98fc7c4e" x="319.036909" y="171.408582" style="stroke: #000000; stroke-width: 0.8"/>
      </g>
     </g>
     <g id="text_3">
      <!-- 1.0 -->
      <g transform="translate(311.085346 186.007019)scale(0.1 -0.1)">
       <defs>
        <path id="DejaVuSans-31" d="M 794 531 
L 1825 531 
L 1825 4091 
L 703 3866 
L 703 4441 
L 1819 4666 
L 2450 4666 
L 2450 531 
L 3481 531 
L 3481 0 
L 794 0 
L 794 531 
z
" transform="scale(0.015625)"/>
       </defs>
       <use xlink:href="#DejaVuSans-31"/>
       <use xlink:href="#DejaVuSans-2e" x="63.623047"/>
       <use xlink:href="#DejaVuSans-30" x="95.410156"/>
      </g>
     </g>
    </g>
    <g id="xtick_4">
     <g id="line2d_4">
      <g>
       <use xlink:href="#mff98fc7c4e" x="410.388154" y="171.408582" style="stroke: #000000; stroke-width: 0.8"/>
      </g>
     </g>
     <g id="text_4">
      <!-- 1.5 -->
      <g transform="translate(402.436592 186.007019)scale(0.1 -0.1)">
       <use xlink:href="#DejaVuSans-31"/>
       <use xlink:href="#DejaVuSans-2e" x="63.623047"/>
       <use xlink:href="#DejaVuSans-35" x="95.410156"/>
      </g>
     </g>
    </g>
    <g id="xtick_5">
     <g id="line2d_5">
      <g>
       <use xlink:href="#mff98fc7c4e" x="501.7394" y="171.408582" style="stroke: #000000; stroke-width: 0.8"/>
      </g>
     </g>
     <g id="text_5">
      <!-- 2.0 -->
      <g transform="translate(493.787837 186.007019)scale(0.1 -0.1)">
       <defs>
        <path id="DejaVuSans-32" d="M 1228 531 
L 3431 531 
L 3431 0 
L 469 0 
L 469 531 
Q 828 903 1448 1529 
Q 2069 2156 2228 2338 
Q 2531 2678 2651 2914 
Q 2772 3150 2772 3378 
Q 2772 3750 2511 3984 
Q 2250 4219 1831 4219 
Q 1534 4219 1204 4116 
Q 875 4013 500 3803 
L 500 4441 
Q 881 4594 1212 4672 
Q 1544 4750 1819 4750 
Q 2544 4750 2975 4387 
Q 3406 4025 3406 3419 
Q 3406 3131 3298 2873 
Q 3191 2616 2906 2266 
Q 2828 2175 2409 1742 
Q 1991 1309 1228 531 
z
" transform="scale(0.015625)"/>
       </defs>
       <use xlink:href="#DejaVuSans-32"/>
       <use xlink:href="#DejaVuSans-2e" x="63.623047"/>
       <use xlink:href="#DejaVuSans-30" x="95.410156"/>
      </g>
     </g>
    </g>
    <g id="xtick_6">
     <g id="line2d_6">
      <g>
       <use xlink:href="#mff98fc7c4e" x="593.090645" y="171.408582" style="stroke: #000000; stroke-width: 0.8"/>
      </g>
     </g>
     <g id="text_6">
      <!-- 2.5 -->
      <g transform="translate(585.139083 186.007019)scale(0.1 -0.1)">
       <use xlink:href="#DejaVuSans-32"/>
       <use xlink:href="#DejaVuSans-2e" x="63.623047"/>
       <use xlink:href="#DejaVuSans-35" x="95.410156"/>
      </g>
     </g>
    </g>
    <g id="xtick_7">
     <g id="line2d_7">
      <g>
       <use xlink:href="#mff98fc7c4e" x="684.44189" y="171.408582" style="stroke: #000000; stroke-width: 0.8"/>
      </g>
     </g>
     <g id="text_7">
      <!-- 3.0 -->
      <g transform="translate(676.490328 186.007019)scale(0.1 -0.1)">
       <defs>
        <path id="DejaVuSans-33" d="M 2597 2516 
Q 3050 2419 3304 2112 
Q 3559 1806 3559 1356 
Q 3559 666 3084 287 
Q 2609 -91 1734 -91 
Q 1441 -91 1130 -33 
Q 819 25 488 141 
L 488 750 
Q 750 597 1062 519 
Q 1375 441 1716 441 
Q 2309 441 2620 675 
Q 2931 909 2931 1356 
Q 2931 1769 2642 2001 
Q 2353 2234 1838 2234 
L 1294 2234 
L 1294 2753 
L 1863 2753 
Q 2328 2753 2575 2939 
Q 2822 3125 2822 3475 
Q 2822 3834 2567 4026 
Q 2313 4219 1838 4219 
Q 1578 4219 1281 4162 
Q 984 4106 628 3988 
L 628 4550 
Q 988 4650 1302 4700 
Q 1616 4750 1894 4750 
Q 2613 4750 3031 4423 
Q 3450 4097 3450 3541 
Q 3450 3153 3228 2886 
Q 3006 2619 2597 2516 
z
" transform="scale(0.015625)"/>
       </defs>
       <use xlink:href="#DejaVuSans-33"/>
       <use xlink:href="#DejaVuSans-2e" x="63.623047"/>
       <use xlink:href="#DejaVuSans-30" x="95.410156"/>
      </g>
     </g>
    </g>
    <g id="xtick_8">
     <g id="line2d_8">
      <g>
       <use xlink:href="#mff98fc7c4e" x="775.793136" y="171.408582" style="stroke: #000000; stroke-width: 0.8"/>
      </g>
     </g>
     <g id="text_8">
      <!-- 3.5 -->
      <g transform="translate(767.841573 186.007019)scale(0.1 -0.1)">
       <use xlink:href="#DejaVuSans-33"/>
       <use xlink:href="#DejaVuSans-2e" x="63.623047"/>
       <use xlink:href="#DejaVuSans-35" x="95.410156"/>
      </g>
     </g>
    </g>
    <g id="xtick_9">
     <g id="line2d_9">
      <g>
       <use xlink:href="#mff98fc7c4e" x="867.144381" y="171.408582" style="stroke: #000000; stroke-width: 0.8"/>
      </g>
     </g>
     <g id="text_9">
      <!-- 4.0 -->
      <g transform="translate(859.192819 186.007019)scale(0.1 -0.1)">
       <defs>
        <path id="DejaVuSans-34" d="M 2419 4116 
L 825 1625 
L 2419 1625 
L 2419 4116 
z
M 2253 4666 
L 3047 4666 
L 3047 1625 
L 3713 1625 
L 3713 1100 
L 3047 1100 
L 3047 0 
L 2419 0 
L 2419 1100 
L 313 1100 
L 313 1709 
L 2253 4666 
z
" transform="scale(0.015625)"/>
       </defs>
       <use xlink:href="#DejaVuSans-34"/>
       <use xlink:href="#DejaVuSans-2e" x="63.623047"/>
       <use xlink:href="#DejaVuSans-30" x="95.410156"/>
      </g>
     </g>
    </g>
   </g>
   <g id="matplotlib.axis_2">
    <g id="ytick_1">
     <g id="line2d_10">
      <defs>
       <path id="m1985819605" d="M 0 0 
L -3.5 0 
" style="stroke: #000000; stroke-width: 0.8"/>
      </defs>
      <g>
       <use xlink:href="#m1985819605" x="96.666031" y="171.089973" style="stroke: #000000; stroke-width: 0.8"/>
      </g>
     </g>
     <g id="text_10">
      <!-- −0.4 -->
      <g transform="translate(65.383219 174.889192)scale(0.1 -0.1)">
       <defs>
        <path id="DejaVuSans-2212" d="M 678 2272 
L 4684 2272 
L 4684 1741 
L 678 1741 
L 678 2272 
z
" transform="scale(0.015625)"/>
       </defs>
       <use xlink:href="#DejaVuSans-2212"/>
       <use xlink:href="#DejaVuSans-30" x="83.789062"/>
       <use xlink:href="#DejaVuSans-2e" x="147.412109"/>
       <use xlink:href="#DejaVuSans-34" x="179.199219"/>
      </g>
     </g>
    </g>
    <g id="ytick_2">
     <g id="line2d_11">
      <g>
       <use xlink:href="#m1985819605" x="96.666031" y="134.549475" style="stroke: #000000; stroke-width: 0.8"/>
      </g>
     </g>
     <g id="text_11">
      <!-- −0.2 -->
      <g transform="translate(65.383219 138.348693)scale(0.1 -0.1)">
       <use xlink:href="#DejaVuSans-2212"/>
       <use xlink:href="#DejaVuSans-30" x="83.789062"/>
       <use xlink:href="#DejaVuSans-2e" x="147.412109"/>
       <use xlink:href="#DejaVuSans-32" x="179.199219"/>
      </g>
     </g>
    </g>
    <g id="ytick_3">
     <g id="line2d_12">
      <g>
       <use xlink:href="#m1985819605" x="96.666031" y="98.008976" style="stroke: #000000; stroke-width: 0.8"/>
      </g>
     </g>
     <g id="text_12">
      <!-- 0.0 -->
      <g transform="translate(73.762906 101.808195)scale(0.1 -0.1)">
       <use xlink:href="#DejaVuSans-30"/>
       <use xlink:href="#DejaVuSans-2e" x="63.623047"/>
       <use xlink:href="#DejaVuSans-30" x="95.410156"/>
      </g>
     </g>
    </g>
    <g id="ytick_4">
     <g id="line2d_13">
      <g>
       <use xlink:href="#m1985819605" x="96.666031" y="61.468478" style="stroke: #000000; stroke-width: 0.8"/>
      </g>
     </g>
     <g id="text_13">
      <!-- 0.2 -->
      <g transform="translate(73.762906 65.267697)scale(0.1 -0.1)">
       <use xlink:href="#DejaVuSans-30"/>
       <use xlink:href="#DejaVuSans-2e" x="63.623047"/>
       <use xlink:href="#DejaVuSans-32" x="95.410156"/>
      </g>
     </g>
    </g>
   </g>
   <g id="line2d_14">
    <path d="M 136.334418 98.008976 
L 864.363429 161.703262 
" clip-path="url(#pcd2598f3fa)" style="fill: none; stroke-dasharray: 9.6,2.4,1.5,2.4; stroke-dashoffset: 0; stroke: #cd5c5c; stroke-width: 1.5"/>
   </g>
   <g id="line2d_15">
    <path d="M 863.606839 158.879629 
L 136.334418 98.008976 
L 865.498314 165.938711 
" clip-path="url(#pcd2598f3fa)" style="fill: none; stroke-dasharray: 1.5,2.475; stroke-dashoffset: 0; stroke: #000000; stroke-width: 1.5"/>
    <defs>
     <path id="m8307b0d88d" d="M -3 3 
L 3 -3 
M -3 -3 
L 3 3 
" style="stroke: #000000"/>
    </defs>
    <g clip-path="url(#pcd2598f3fa)">
     <use xlink:href="#m8307b0d88d" x="863.606839" y="158.879629" style="stroke: #000000"/>
     <use xlink:href="#m8307b0d88d" x="136.334418" y="98.008976" style="stroke: #000000"/>
     <use xlink:href="#m8307b0d88d" x="865.498314" y="165.938711" style="stroke: #000000"/>
    </g>
   </g>
   <g id="line2d_16">
    <path d="M 863.606839 158.879629 
L 682.266184 136.613796 
L 207.827263 56.541289 
L 133.277092 63.063584 
L 136.334418 98.008976 
L 138.372635 121.305905 
L 172.857776 133.85747 
L 646.55579 154.464419 
L 865.498314 165.938711 
" clip-path="url(#pcd2598f3fa)" style="fill: none; stroke-dasharray: 5.55,2.4; stroke-dashoffset: 0; stroke: #808080; stroke-width: 1.5"/>
    <defs>
     <path id="mb367c25be6" d="M 0 -3 
L -0.673542 -0.927051 
L -2.85317 -0.927051 
L -1.089814 0.354102 
L -1.763356 2.427051 
L -0 1.145898 
L 1.763356 2.427051 
L 1.089814 0.354102 
L 2.85317 -0.927051 
L 0.673542 -0.927051 
z
" style="stroke: #808080; stroke-linejoin: bevel"/>
    </defs>
    <g clip-path="url(#pcd2598f3fa)">
     <use xlink:href="#mb367c25be6" x="863.606839" y="158.879629" style="fill: #808080; stroke: #808080; stroke-linejoin: bevel"/>
     <use xlink:href="#mb367c25be6" x="682.266184" y="136.613796" style="fill: #808080; stroke: #808080; stroke-linejoin: bevel"/>
     <use xlink:href="#mb367c25be6" x="207.827263" y="56.541289" style="fill: #808080; stroke: #808080; stroke-linejoin: bevel"/>
     <use xlink:href="#mb367c25be6" x="133.277092" y="63.063584" style="fill: #808080; stroke: #808080; stroke-linejoin: bevel"/>
     <use xlink:href="#mb367c25be6" x="136.334418" y="98.008976" style="fill: #808080; stroke: #808080; stroke-linejoin: bevel"/>
     <use xlink:href="#mb367c25be6" x="138.372635" y="121.305905" style="fill: #808080; stroke: #808080; stroke-linejoin: bevel"/>
     <use xlink:href="#mb367c25be6" x="172.857776" y="133.85747" style="fill: #808080; stroke: #808080; stroke-linejoin: bevel"/>
     <use xlink:href="#mb367c25be6" x="646.55579" y="154.464419" style="fill: #808080; stroke: #808080; stroke-linejoin: bevel"/>
     <use xlink:href="#mb367c25be6" x="865.498314" y="165.938711" style="fill: #808080; stroke: #808080; stroke-linejoin: bevel"/>
    </g>
   </g>
   <g id="line2d_17">
    <path d="M 863.606839 158.879629 
L 856.10336 157.945204 
L 848.258015 156.943545 
L 840.087564 155.878148 
L 831.608514 154.752457 
L 822.837117 153.569868 
L 813.789373 152.333724 
L 804.481027 151.047318 
L 794.927572 149.713894 
L 785.144246 148.336643 
L 775.146033 146.918708 
L 764.947664 145.463178 
L 754.563618 143.973095 
L 744.008117 142.451447 
L 733.295132 140.901175 
L 722.438379 139.325165 
L 711.451321 137.726258 
L 700.347166 136.107238 
L 689.138871 134.470844 
L 677.839136 132.819761 
L 666.460411 131.156624 
L 655.014889 129.484019 
L 643.514512 127.804479 
L 631.970965 126.120488 
L 620.395684 124.43448 
L 608.799847 122.748835 
L 597.19438 121.065887 
L 585.589957 119.387916 
L 573.996996 117.717153 
L 562.425662 116.055777 
L 550.885867 114.405918 
L 539.387268 112.769655 
L 527.939269 111.149015 
L 516.551022 109.545977 
L 505.231423 107.962466 
L 493.989115 106.400359 
L 482.832487 104.861483 
L 471.769676 103.34761 
L 460.808564 101.860467 
L 449.956779 100.401727 
L 439.221697 98.973013 
L 428.610438 97.575897 
L 418.12987 96.211902 
L 407.786607 94.882499 
L 397.587009 93.589108 
L 387.537182 92.3331 
L 377.642981 91.115794 
L 367.910004 89.93846 
L 358.343596 88.802314 
L 348.94885 87.708526 
L 339.730603 86.658211 
L 330.693441 85.652437 
L 321.841695 84.692219 
L 313.179441 83.778523 
L 304.710504 82.912262 
L 296.438454 82.094302 
L 288.366606 81.325455 
L 280.498023 80.606484 
L 272.835516 79.938102 
L 265.381638 79.32097 
L 258.138691 78.755698 
L 251.108724 78.242847 
L 244.293531 77.782927 
L 237.694653 77.376397 
L 231.313377 77.023666 
L 225.150736 76.72509 
L 219.207509 76.480978 
L 213.484224 76.291587 
L 207.981152 76.157121 
L 202.698313 76.077737 
L 197.63547 76.053539 
L 192.792137 76.084582 
L 188.16757 76.170869 
L 183.760773 76.312353 
L 179.570498 76.508937 
L 175.595241 76.760471 
L 171.833245 77.066759 
L 168.282499 77.427549 
L 164.94074 77.842542 
L 161.805449 78.311386 
L 158.873855 78.833682 
L 156.142933 79.408977 
L 153.609405 80.036768 
L 151.269737 80.716502 
L 149.120143 81.447575 
L 147.156585 82.229334 
L 145.374767 83.061072 
L 143.770144 83.942035 
L 142.337914 84.871416 
L 141.073023 85.848359 
L 139.970163 86.871956 
L 139.023773 87.941248 
L 138.228035 89.055228 
L 137.576883 90.212836 
L 137.063993 91.412962 
L 136.682788 92.654446 
L 136.426438 93.936076 
L 136.287861 95.256592 
L 136.259718 96.614679 
L 136.334418 98.008976 
" clip-path="url(#pcd2598f3fa)" style="fill: none; stroke: #6495ed; stroke-width: 1.5; stroke-linecap: square"/>
   </g>
   <g id="line2d_18">
    <path d="M 136.334418 98.008976 
L 136.438299 98.943765 
L 136.591808 99.865858 
L 136.804593 100.775706 
L 137.086028 101.673751 
L 137.445212 102.560427 
L 137.890968 103.43616 
L 138.431845 104.301363 
L 139.076117 105.156445 
L 139.831782 106.001802 
L 140.706564 106.837823 
L 141.707911 107.664888 
L 142.842997 108.483367 
L 144.118721 109.293622 
L 145.541706 110.096006 
L 147.1183 110.890862 
L 148.854578 111.678525 
L 150.756337 112.45932 
L 152.829102 113.233565 
L 155.07812 114.001566 
L 157.508366 114.763624 
L 160.124537 115.520026 
L 162.931057 116.271055 
L 165.932074 117.016981 
L 169.131463 117.758067 
L 172.53282 118.494568 
L 176.139471 119.226727 
L 179.954463 119.954781 
L 183.980569 120.678957 
L 188.220287 121.399472 
L 192.675843 122.116534 
L 197.349182 122.830344 
L 202.241979 123.541093 
L 207.355633 124.248962 
L 212.691266 124.954124 
L 218.249726 125.656743 
L 224.031588 126.356973 
L 230.037149 127.054961 
L 236.266432 127.750844 
L 242.719186 128.444748 
L 249.394884 129.136794 
L 256.292724 129.82709 
L 263.411629 130.515739 
L 270.750248 131.20283 
L 278.306954 131.888449 
L 286.079844 132.572668 
L 294.066742 133.255552 
L 302.265196 133.937158 
L 310.67248 134.617531 
L 319.285591 135.296711 
L 328.101252 135.974726 
L 337.115911 136.651596 
L 346.325742 137.327331 
L 355.726643 138.001935 
L 365.314236 138.675399 
L 375.08387 139.347709 
L 385.030618 140.018838 
L 395.149277 140.688753 
L 405.434371 141.35741 
L 415.880147 142.024759 
L 426.480579 142.690737 
L 437.229364 143.355276 
L 448.119926 144.018295 
L 459.145412 144.679707 
L 470.298695 145.339416 
L 481.572374 145.997314 
L 492.958771 146.653287 
L 504.449933 147.307212 
L 516.037634 147.958955 
L 527.713372 148.608375 
L 539.46837 149.25532 
L 551.293574 149.89963 
L 563.179659 150.541138 
L 575.117021 151.179664 
L 587.095784 151.815022 
L 599.105796 152.447017 
L 611.136629 153.075442 
L 623.17758 153.700086 
L 635.217674 154.320724 
L 647.245656 154.937124 
L 659.250001 155.549047 
L 671.218905 156.156242 
L 683.140292 156.758451 
L 695.001809 157.355405 
L 706.790828 157.946828 
L 718.494448 158.532434 
L 730.099491 159.111928 
L 741.592505 159.685007 
L 752.959762 160.251358 
L 764.187259 160.810658 
L 775.26072 161.362579 
L 786.165592 161.906778 
L 796.887047 162.442909 
L 807.409984 162.970613 
L 817.719024 163.489524 
L 827.798515 163.999265 
L 837.632529 164.499453 
L 847.204865 164.989693 
L 856.499044 165.469583 
L 865.498314 165.938711 
" clip-path="url(#pcd2598f3fa)" style="fill: none; stroke: #6495ed; stroke-width: 1.5; stroke-linecap: square"/>
   </g>
   <g id="line2d_19">
    <path d="M 136.334418 98.008976 
L 158.175288 96.098148 
" clip-path="url(#pcd2598f3fa)" style="fill: none; stroke: #ffd700; stroke-width: 1.5; stroke-linecap: square"/>
   </g>
   <g id="patch_4">
    <path d="M 96.666031 171.408582 
L 96.666031 51.071418 
" style="fill: none; stroke: #000000; stroke-width: 0.8; stroke-linejoin: miter; stroke-linecap: square"/>
   </g>
   <g id="patch_5">
    <path d="M 902.109375 171.408582 
L 902.109375 51.071418 
" style="fill: none; stroke: #000000; stroke-width: 0.8; stroke-linejoin: miter; stroke-linecap: square"/>
   </g>
   <g id="patch_6">
    <path d="M 96.666031 171.408582 
L 902.109375 171.408582 
" style="fill: none; stroke: #000000; stroke-width: 0.8; stroke-linejoin: miter; stroke-linecap: square"/>
   </g>
   <g id="patch_7">
    <path d="M 96.666031 51.071418 
L 902.109375 51.071418 
" style="fill: none; stroke: #000000; stroke-width: 0.8; stroke-linejoin: miter; stroke-linecap: square"/>
   </g>
   <g id="legend_1">
    <g id="patch_8">
     <path d="M 754.49375 132.462043 
L 895.109375 132.462043 
Q 897.109375 132.462043 897.109375 130.462043 
L 897.109375 58.071418 
Q 897.109375 56.071418 895.109375 56.071418 
L 754.49375 56.071418 
Q 752.49375 56.071418 752.49375 58.071418 
L 752.49375 130.462043 
Q 752.49375 132.462043 754.49375 132.462043 
z
" style="fill: #ffffff; opacity: 0.8; stroke: #cccccc; stroke-linejoin: miter"/>
    </g>
    <g id="line2d_20">
     <path d="M 756.49375 64.169856 
L 766.49375 64.169856 
L 776.49375 64.169856 
" style="fill: none; stroke-dasharray: 9.6,2.4,1.5,2.4; stroke-dashoffset: 0; stroke: #cd5c5c; stroke-width: 1.5"/>
    </g>
    <g id="text_14">
     <!-- chordline -->
     <g transform="translate(784.49375 67.669856)scale(0.1 -0.1)">
      <defs>
       <path id="DejaVuSans-63" d="M 3122 3366 
L 3122 2828 
Q 2878 2963 2633 3030 
Q 2388 3097 2138 3097 
Q 1578 3097 1268 2742 
Q 959 2388 959 1747 
Q 959 1106 1268 751 
Q 1578 397 2138 397 
Q 2388 397 2633 464 
Q 2878 531 3122 666 
L 3122 134 
Q 2881 22 2623 -34 
Q 2366 -91 2075 -91 
Q 1284 -91 818 406 
Q 353 903 353 1747 
Q 353 2603 823 3093 
Q 1294 3584 2113 3584 
Q 2378 3584 2631 3529 
Q 2884 3475 3122 3366 
z
" transform="scale(0.015625)"/>
       <path id="DejaVuSans-68" d="M 3513 2113 
L 3513 0 
L 2938 0 
L 2938 2094 
Q 2938 2591 2744 2837 
Q 2550 3084 2163 3084 
Q 1697 3084 1428 2787 
Q 1159 2491 1159 1978 
L 1159 0 
L 581 0 
L 581 4863 
L 1159 4863 
L 1159 2956 
Q 1366 3272 1645 3428 
Q 1925 3584 2291 3584 
Q 2894 3584 3203 3211 
Q 3513 2838 3513 2113 
z
" transform="scale(0.015625)"/>
       <path id="DejaVuSans-6f" d="M 1959 3097 
Q 1497 3097 1228 2736 
Q 959 2375 959 1747 
Q 959 1119 1226 758 
Q 1494 397 1959 397 
Q 2419 397 2687 759 
Q 2956 1122 2956 1747 
Q 2956 2369 2687 2733 
Q 2419 3097 1959 3097 
z
M 1959 3584 
Q 2709 3584 3137 3096 
Q 3566 2609 3566 1747 
Q 3566 888 3137 398 
Q 2709 -91 1959 -91 
Q 1206 -91 779 398 
Q 353 888 353 1747 
Q 353 2609 779 3096 
Q 1206 3584 1959 3584 
z
" transform="scale(0.015625)"/>
       <path id="DejaVuSans-72" d="M 2631 2963 
Q 2534 3019 2420 3045 
Q 2306 3072 2169 3072 
Q 1681 3072 1420 2755 
Q 1159 2438 1159 1844 
L 1159 0 
L 581 0 
L 581 3500 
L 1159 3500 
L 1159 2956 
Q 1341 3275 1631 3429 
Q 1922 3584 2338 3584 
Q 2397 3584 2469 3576 
Q 2541 3569 2628 3553 
L 2631 2963 
z
" transform="scale(0.015625)"/>
       <path id="DejaVuSans-64" d="M 2906 2969 
L 2906 4863 
L 3481 4863 
L 3481 0 
L 2906 0 
L 2906 525 
Q 2725 213 2448 61 
Q 2172 -91 1784 -91 
Q 1150 -91 751 415 
Q 353 922 353 1747 
Q 353 2572 751 3078 
Q 1150 3584 1784 3584 
Q 2172 3584 2448 3432 
Q 2725 3281 2906 2969 
z
M 947 1747 
Q 947 1113 1208 752 
Q 1469 391 1925 391 
Q 2381 391 2643 752 
Q 2906 1113 2906 1747 
Q 2906 2381 2643 2742 
Q 2381 3103 1925 3103 
Q 1469 3103 1208 2742 
Q 947 2381 947 1747 
z
" transform="scale(0.015625)"/>
       <path id="DejaVuSans-6c" d="M 603 4863 
L 1178 4863 
L 1178 0 
L 603 0 
L 603 4863 
z
" transform="scale(0.015625)"/>
       <path id="DejaVuSans-69" d="M 603 3500 
L 1178 3500 
L 1178 0 
L 603 0 
L 603 3500 
z
M 603 4863 
L 1178 4863 
L 1178 4134 
L 603 4134 
L 603 4863 
z
" transform="scale(0.015625)"/>
       <path id="DejaVuSans-6e" d="M 3513 2113 
L 3513 0 
L 2938 0 
L 2938 2094 
Q 2938 2591 2744 2837 
Q 2550 3084 2163 3084 
Q 1697 3084 1428 2787 
Q 1159 2491 1159 1978 
L 1159 0 
L 581 0 
L 581 3500 
L 1159 3500 
L 1159 2956 
Q 1366 3272 1645 3428 
Q 1925 3584 2291 3584 
Q 2894 3584 3203 3211 
Q 3513 2838 3513 2113 
z
" transform="scale(0.015625)"/>
       <path id="DejaVuSans-65" d="M 3597 1894 
L 3597 1613 
L 953 1613 
Q 991 1019 1311 708 
Q 1631 397 2203 397 
Q 2534 397 2845 478 
Q 3156 559 3463 722 
L 3463 178 
Q 3153 47 2828 -22 
Q 2503 -91 2169 -91 
Q 1331 -91 842 396 
Q 353 884 353 1716 
Q 353 2575 817 3079 
Q 1281 3584 2069 3584 
Q 2775 3584 3186 3129 
Q 3597 2675 3597 1894 
z
M 3022 2063 
Q 3016 2534 2758 2815 
Q 2500 3097 2075 3097 
Q 1594 3097 1305 2825 
Q 1016 2553 972 2059 
L 3022 2063 
z
" transform="scale(0.015625)"/>
      </defs>
      <use xlink:href="#DejaVuSans-63"/>
      <use xlink:href="#DejaVuSans-68" x="54.980469"/>
      <use xlink:href="#DejaVuSans-6f" x="118.359375"/>
      <use xlink:href="#DejaVuSans-72" x="179.541016"/>
      <use xlink:href="#DejaVuSans-64" x="218.904297"/>
      <use xlink:href="#DejaVuSans-6c" x="282.380859"/>
      <use xlink:href="#DejaVuSans-69" x="310.164062"/>
      <use xlink:href="#DejaVuSans-6e" x="337.947266"/>
      <use xlink:href="#DejaVuSans-65" x="401.326172"/>
     </g>
    </g>
    <g id="line2d_21">
     <path d="M 756.49375 78.847981 
L 766.49375 78.847981 
L 776.49375 78.847981 
" style="fill: none; stroke-dasharray: 1.5,2.475; stroke-dashoffset: 0; stroke: #000000; stroke-width: 1.5"/>
     <g>
      <use xlink:href="#m8307b0d88d" x="766.49375" y="78.847981" style="stroke: #000000"/>
     </g>
    </g>
    <g id="text_15">
     <!-- anchor point skeleton -->
     <g transform="translate(784.49375 82.347981)scale(0.1 -0.1)">
      <defs>
       <path id="DejaVuSans-61" d="M 2194 1759 
Q 1497 1759 1228 1600 
Q 959 1441 959 1056 
Q 959 750 1161 570 
Q 1363 391 1709 391 
Q 2188 391 2477 730 
Q 2766 1069 2766 1631 
L 2766 1759 
L 2194 1759 
z
M 3341 1997 
L 3341 0 
L 2766 0 
L 2766 531 
Q 2569 213 2275 61 
Q 1981 -91 1556 -91 
Q 1019 -91 701 211 
Q 384 513 384 1019 
Q 384 1609 779 1909 
Q 1175 2209 1959 2209 
L 2766 2209 
L 2766 2266 
Q 2766 2663 2505 2880 
Q 2244 3097 1772 3097 
Q 1472 3097 1187 3025 
Q 903 2953 641 2809 
L 641 3341 
Q 956 3463 1253 3523 
Q 1550 3584 1831 3584 
Q 2591 3584 2966 3190 
Q 3341 2797 3341 1997 
z
" transform="scale(0.015625)"/>
       <path id="DejaVuSans-20" transform="scale(0.015625)"/>
       <path id="DejaVuSans-70" d="M 1159 525 
L 1159 -1331 
L 581 -1331 
L 581 3500 
L 1159 3500 
L 1159 2969 
Q 1341 3281 1617 3432 
Q 1894 3584 2278 3584 
Q 2916 3584 3314 3078 
Q 3713 2572 3713 1747 
Q 3713 922 3314 415 
Q 2916 -91 2278 -91 
Q 1894 -91 1617 61 
Q 1341 213 1159 525 
z
M 3116 1747 
Q 3116 2381 2855 2742 
Q 2594 3103 2138 3103 
Q 1681 3103 1420 2742 
Q 1159 2381 1159 1747 
Q 1159 1113 1420 752 
Q 1681 391 2138 391 
Q 2594 391 2855 752 
Q 3116 1113 3116 1747 
z
" transform="scale(0.015625)"/>
       <path id="DejaVuSans-74" d="M 1172 4494 
L 1172 3500 
L 2356 3500 
L 2356 3053 
L 1172 3053 
L 1172 1153 
Q 1172 725 1289 603 
Q 1406 481 1766 481 
L 2356 481 
L 2356 0 
L 1766 0 
Q 1100 0 847 248 
Q 594 497 594 1153 
L 594 3053 
L 172 3053 
L 172 3500 
L 594 3500 
L 594 4494 
L 1172 4494 
z
" transform="scale(0.015625)"/>
       <path id="DejaVuSans-73" d="M 2834 3397 
L 2834 2853 
Q 2591 2978 2328 3040 
Q 2066 3103 1784 3103 
Q 1356 3103 1142 2972 
Q 928 2841 928 2578 
Q 928 2378 1081 2264 
Q 1234 2150 1697 2047 
L 1894 2003 
Q 2506 1872 2764 1633 
Q 3022 1394 3022 966 
Q 3022 478 2636 193 
Q 2250 -91 1575 -91 
Q 1294 -91 989 -36 
Q 684 19 347 128 
L 347 722 
Q 666 556 975 473 
Q 1284 391 1588 391 
Q 1994 391 2212 530 
Q 2431 669 2431 922 
Q 2431 1156 2273 1281 
Q 2116 1406 1581 1522 
L 1381 1569 
Q 847 1681 609 1914 
Q 372 2147 372 2553 
Q 372 3047 722 3315 
Q 1072 3584 1716 3584 
Q 2034 3584 2315 3537 
Q 2597 3491 2834 3397 
z
" transform="scale(0.015625)"/>
       <path id="DejaVuSans-6b" d="M 581 4863 
L 1159 4863 
L 1159 1991 
L 2875 3500 
L 3609 3500 
L 1753 1863 
L 3688 0 
L 2938 0 
L 1159 1709 
L 1159 0 
L 581 0 
L 581 4863 
z
" transform="scale(0.015625)"/>
      </defs>
      <use xlink:href="#DejaVuSans-61"/>
      <use xlink:href="#DejaVuSans-6e" x="61.279297"/>
      <use xlink:href="#DejaVuSans-63" x="124.658203"/>
      <use xlink:href="#DejaVuSans-68" x="179.638672"/>
      <use xlink:href="#DejaVuSans-6f" x="243.017578"/>
      <use xlink:href="#DejaVuSans-72" x="304.199219"/>
      <use xlink:href="#DejaVuSans-20" x="345.3125"/>
      <use xlink:href="#DejaVuSans-70" x="377.099609"/>
      <use xlink:href="#DejaVuSans-6f" x="440.576172"/>
      <use xlink:href="#DejaVuSans-69" x="501.757812"/>
      <use xlink:href="#DejaVuSans-6e" x="529.541016"/>
      <use xlink:href="#DejaVuSans-74" x="592.919922"/>
      <use xlink:href="#DejaVuSans-20" x="632.128906"/>
      <use xlink:href="#DejaVuSans-73" x="663.916016"/>
      <use xlink:href="#DejaVuSans-6b" x="716.015625"/>
      <use xlink:href="#DejaVuSans-65" x="770.300781"/>
      <use xlink:href="#DejaVuSans-6c" x="831.824219"/>
      <use xlink:href="#DejaVuSans-65" x="859.607422"/>
      <use xlink:href="#DejaVuSans-74" x="921.130859"/>
      <use xlink:href="#DejaVuSans-6f" x="960.339844"/>
      <use xlink:href="#DejaVuSans-6e" x="1021.521484"/>
     </g>
    </g>
    <g id="line2d_22">
     <path d="M 756.49375 93.526106 
L 766.49375 93.526106 
L 776.49375 93.526106 
" style="fill: none; stroke-dasharray: 5.55,2.4; stroke-dashoffset: 0; stroke: #808080; stroke-width: 1.5"/>
     <g>
      <use xlink:href="#mb367c25be6" x="766.49375" y="93.526106" style="fill: #808080; stroke: #808080; stroke-linejoin: bevel"/>
     </g>
    </g>
    <g id="text_16">
     <!-- control point skeleton -->
     <g transform="translate(784.49375 97.026106)scale(0.1 -0.1)">
      <use xlink:href="#DejaVuSans-63"/>
      <use xlink:href="#DejaVuSans-6f" x="54.980469"/>
      <use xlink:href="#DejaVuSans-6e" x="116.162109"/>
      <use xlink:href="#DejaVuSans-74" x="179.541016"/>
      <use xlink:href="#DejaVuSans-72" x="218.75"/>
      <use xlink:href="#DejaVuSans-6f" x="257.613281"/>
      <use xlink:href="#DejaVuSans-6c" x="318.794922"/>
      <use xlink:href="#DejaVuSans-20" x="346.578125"/>
      <use xlink:href="#DejaVuSans-70" x="378.365234"/>
      <use xlink:href="#DejaVuSans-6f" x="441.841797"/>
      <use xlink:href="#DejaVuSans-69" x="503.023438"/>
      <use xlink:href="#DejaVuSans-6e" x="530.806641"/>
      <use xlink:href="#DejaVuSans-74" x="594.185547"/>
      <use xlink:href="#DejaVuSans-20" x="633.394531"/>
      <use xlink:href="#DejaVuSans-73" x="665.181641"/>
      <use xlink:href="#DejaVuSans-6b" x="717.28125"/>
      <use xlink:href="#DejaVuSans-65" x="771.566406"/>
      <use xlink:href="#DejaVuSans-6c" x="833.089844"/>
      <use xlink:href="#DejaVuSans-65" x="860.873047"/>
      <use xlink:href="#DejaVuSans-74" x="922.396484"/>
      <use xlink:href="#DejaVuSans-6f" x="961.605469"/>
      <use xlink:href="#DejaVuSans-6e" x="1022.787109"/>
     </g>
    </g>
    <g id="line2d_23">
     <path d="M 756.49375 108.204231 
L 766.49375 108.204231 
L 776.49375 108.204231 
" style="fill: none; stroke: #6495ed; stroke-width: 1.5; stroke-linecap: square"/>
    </g>
    <g id="text_17">
     <!-- airfoil -->
     <g transform="translate(784.49375 111.704231)scale(0.1 -0.1)">
      <defs>
       <path id="DejaVuSans-66" d="M 2375 4863 
L 2375 4384 
L 1825 4384 
Q 1516 4384 1395 4259 
Q 1275 4134 1275 3809 
L 1275 3500 
L 2222 3500 
L 2222 3053 
L 1275 3053 
L 1275 0 
L 697 0 
L 697 3053 
L 147 3053 
L 147 3500 
L 697 3500 
L 697 3744 
Q 697 4328 969 4595 
Q 1241 4863 1831 4863 
L 2375 4863 
z
" transform="scale(0.015625)"/>
      </defs>
      <use xlink:href="#DejaVuSans-61"/>
      <use xlink:href="#DejaVuSans-69" x="61.279297"/>
      <use xlink:href="#DejaVuSans-72" x="89.0625"/>
      <use xlink:href="#DejaVuSans-66" x="130.175781"/>
      <use xlink:href="#DejaVuSans-6f" x="165.380859"/>
      <use xlink:href="#DejaVuSans-69" x="226.5625"/>
      <use xlink:href="#DejaVuSans-6c" x="254.345703"/>
     </g>
    </g>
    <g id="patch_9">
     <path d="M 756.49375 126.382356 
L 776.49375 126.382356 
L 776.49375 119.382356 
L 756.49375 119.382356 
L 756.49375 126.382356 
z
" style="fill: none; stroke: #ffd700; stroke-linejoin: miter"/>
    </g>
    <g id="text_18">
     <!-- R circle -->
     <g transform="translate(784.49375 126.382356)scale(0.1 -0.1)">
      <defs>
       <path id="DejaVuSans-52" d="M 2841 2188 
Q 3044 2119 3236 1894 
Q 3428 1669 3622 1275 
L 4263 0 
L 3584 0 
L 2988 1197 
Q 2756 1666 2539 1819 
Q 2322 1972 1947 1972 
L 1259 1972 
L 1259 0 
L 628 0 
L 628 4666 
L 2053 4666 
Q 2853 4666 3247 4331 
Q 3641 3997 3641 3322 
Q 3641 2881 3436 2590 
Q 3231 2300 2841 2188 
z
M 1259 4147 
L 1259 2491 
L 2053 2491 
Q 2509 2491 2742 2702 
Q 2975 2913 2975 3322 
Q 2975 3731 2742 3939 
Q 2509 4147 2053 4147 
L 1259 4147 
z
" transform="scale(0.015625)"/>
      </defs>
      <use xlink:href="#DejaVuSans-52"/>
      <use xlink:href="#DejaVuSans-20" x="69.482422"/>
      <use xlink:href="#DejaVuSans-63" x="101.269531"/>
      <use xlink:href="#DejaVuSans-69" x="156.25"/>
      <use xlink:href="#DejaVuSans-72" x="184.033203"/>
      <use xlink:href="#DejaVuSans-63" x="222.896484"/>
      <use xlink:href="#DejaVuSans-6c" x="277.876953"/>
      <use xlink:href="#DejaVuSans-65" x="305.660156"/>
     </g>
    </g>
   </g>
  </g>
  <g id="text_19">
   <!-- Airfoil: $c=4.000$, $\alpha=5.000^\circ$, $A=0.75529$ -->
   <g transform="translate(336.42 13.265325)scale(0.12 -0.12)">
    <defs>
     <path id="DejaVuSans-41" d="M 2188 4044 
L 1331 1722 
L 3047 1722 
L 2188 4044 
z
M 1831 4666 
L 2547 4666 
L 4325 0 
L 3669 0 
L 3244 1197 
L 1141 1197 
L 716 0 
L 50 0 
L 1831 4666 
z
" transform="scale(0.015625)"/>
     <path id="DejaVuSans-3a" d="M 750 794 
L 1409 794 
L 1409 0 
L 750 0 
L 750 794 
z
M 750 3309 
L 1409 3309 
L 1409 2516 
L 750 2516 
L 750 3309 
z
" transform="scale(0.015625)"/>
     <path id="DejaVuSans-Oblique-63" d="M 3431 3366 
L 3316 2797 
Q 3109 2947 2876 3022 
Q 2644 3097 2394 3097 
Q 2119 3097 1870 3000 
Q 1622 2903 1453 2725 
Q 1184 2453 1037 2087 
Q 891 1722 891 1331 
Q 891 859 1127 628 
Q 1363 397 1844 397 
Q 2081 397 2348 469 
Q 2616 541 2906 684 
L 2797 116 
Q 2547 13 2283 -39 
Q 2019 -91 1741 -91 
Q 1044 -91 669 257 
Q 294 606 294 1253 
Q 294 1797 489 2255 
Q 684 2713 1069 3078 
Q 1331 3328 1684 3456 
Q 2038 3584 2456 3584 
Q 2700 3584 2940 3529 
Q 3181 3475 3431 3366 
z
" transform="scale(0.015625)"/>
     <path id="DejaVuSans-3d" d="M 678 2906 
L 4684 2906 
L 4684 2381 
L 678 2381 
L 678 2906 
z
M 678 1631 
L 4684 1631 
L 4684 1100 
L 678 1100 
L 678 1631 
z
" transform="scale(0.015625)"/>
     <path id="DejaVuSans-2c" d="M 750 794 
L 1409 794 
L 1409 256 
L 897 -744 
L 494 -744 
L 750 256 
L 750 794 
z
" transform="scale(0.015625)"/>
     <path id="DejaVuSans-Oblique-3b1" d="M 2619 1628 
L 2622 2350 
Q 2625 3088 2069 3091 
Q 1653 3094 1394 2747 
Q 1069 2319 959 1747 
Q 825 1059 994 731 
Q 1169 397 1547 397 
Q 1966 397 2319 1063 
L 2619 1628 
z
M 2166 3578 
Q 3141 3594 3128 2584 
Q 3128 2584 3616 3500 
L 4128 3500 
L 3119 1603 
L 3109 919 
Q 3109 766 3194 638 
Q 3291 488 3391 488 
L 3669 488 
L 3575 0 
L 3228 0 
Q 2934 0 2722 263 
Q 2622 394 2619 669 
Q 2416 334 2066 50 
Q 1900 -81 1453 -78 
Q 722 -72 456 397 
Q 184 884 353 1747 
Q 534 2675 1009 3097 
Q 1544 3569 2166 3578 
z
" transform="scale(0.015625)"/>
     <path id="DejaVuSans-2218" d="M 2000 2619 
Q 1750 2619 1578 2445 
Q 1406 2272 1406 2022 
Q 1406 1775 1578 1605 
Q 1750 1435 2000 1435 
Q 2250 1435 2422 1605 
Q 2594 1775 2594 2022 
Q 2594 2269 2420 2444 
Q 2247 2619 2000 2619 
z
M 2000 3022 
Q 2200 3022 2384 2945 
Q 2569 2869 2703 2725 
Q 2847 2585 2919 2406 
Q 2991 2228 2991 2022 
Q 2991 1610 2702 1324 
Q 2413 1038 1994 1038 
Q 1572 1038 1290 1319 
Q 1009 1600 1009 2022 
Q 1009 2441 1296 2731 
Q 1584 3022 2000 3022 
z
" transform="scale(0.015625)"/>
     <path id="DejaVuSans-Oblique-41" d="M 2356 4666 
L 3072 4666 
L 3938 0 
L 3278 0 
L 3084 1197 
L 984 1197 
L 325 0 
L -341 0 
L 2356 4666 
z
M 2584 4044 
L 1275 1722 
L 2988 1722 
L 2584 4044 
z
" transform="scale(0.015625)"/>
     <path id="DejaVuSans-37" d="M 525 4666 
L 3525 4666 
L 3525 4397 
L 1831 0 
L 1172 0 
L 2766 4134 
L 525 4134 
L 525 4666 
z
" transform="scale(0.015625)"/>
     <path id="DejaVuSans-39" d="M 703 97 
L 703 672 
Q 941 559 1184 500 
Q 1428 441 1663 441 
Q 2288 441 2617 861 
Q 2947 1281 2994 2138 
Q 2813 1869 2534 1725 
Q 2256 1581 1919 1581 
Q 1219 1581 811 2004 
Q 403 2428 403 3163 
Q 403 3881 828 4315 
Q 1253 4750 1959 4750 
Q 2769 4750 3195 4129 
Q 3622 3509 3622 2328 
Q 3622 1225 3098 567 
Q 2575 -91 1691 -91 
Q 1453 -91 1209 -44 
Q 966 3 703 97 
z
M 1959 2075 
Q 2384 2075 2632 2365 
Q 2881 2656 2881 3163 
Q 2881 3666 2632 3958 
Q 2384 4250 1959 4250 
Q 1534 4250 1286 3958 
Q 1038 3666 1038 3163 
Q 1038 2656 1286 2365 
Q 1534 2075 1959 2075 
z
" transform="scale(0.015625)"/>
    </defs>
    <use xlink:href="#DejaVuSans-41" transform="translate(0 0.015625)"/>
    <use xlink:href="#DejaVuSans-69" transform="translate(68.408203 0.015625)"/>
    <use xlink:href="#DejaVuSans-72" transform="translate(96.191406 0.015625)"/>
    <use xlink:href="#DejaVuSans-66" transform="translate(137.304688 0.015625)"/>
    <use xlink:href="#DejaVuSans-6f" transform="translate(172.509766 0.015625)"/>
    <use xlink:href="#DejaVuSans-69" transform="translate(233.691406 0.015625)"/>
    <use xlink:href="#DejaVuSans-6c" transform="translate(261.474609 0.015625)"/>
    <use xlink:href="#DejaVuSans-3a" transform="translate(289.257812 0.015625)"/>
    <use xlink:href="#DejaVuSans-20" transform="translate(322.949219 0.015625)"/>
    <use xlink:href="#DejaVuSans-Oblique-63" transform="translate(354.736328 0.015625)"/>
    <use xlink:href="#DejaVuSans-3d" transform="translate(429.199219 0.015625)"/>
    <use xlink:href="#DejaVuSans-34" transform="translate(532.470703 0.015625)"/>
    <use xlink:href="#DejaVuSans-2e" transform="translate(596.09375 0.015625)"/>
    <use xlink:href="#DejaVuSans-30" transform="translate(627.880859 0.015625)"/>
    <use xlink:href="#DejaVuSans-30" transform="translate(691.503906 0.015625)"/>
    <use xlink:href="#DejaVuSans-30" transform="translate(755.126953 0.015625)"/>
    <use xlink:href="#DejaVuSans-2c" transform="translate(818.75 0.015625)"/>
    <use xlink:href="#DejaVuSans-20" transform="translate(850.537109 0.015625)"/>
    <use xlink:href="#DejaVuSans-Oblique-3b1" transform="translate(882.324219 0.015625)"/>
    <use xlink:href="#DejaVuSans-3d" transform="translate(967.724609 0.015625)"/>
    <use xlink:href="#DejaVuSans-35" transform="translate(1070.996094 0.015625)"/>
    <use xlink:href="#DejaVuSans-2e" transform="translate(1134.619141 0.015625)"/>
    <use xlink:href="#DejaVuSans-30" transform="translate(1166.40625 0.015625)"/>
    <use xlink:href="#DejaVuSans-30" transform="translate(1230.029297 0.015625)"/>
    <use xlink:href="#DejaVuSans-30" transform="translate(1293.652344 0.015625)"/>
    <use xlink:href="#DejaVuSans-2218" transform="translate(1371.870117 38.296875)scale(0.7)"/>
    <use xlink:href="#DejaVuSans-2c" transform="translate(1432.060547 0.015625)"/>
    <use xlink:href="#DejaVuSans-20" transform="translate(1463.847656 0.015625)"/>
    <use xlink:href="#DejaVuSans-Oblique-41" transform="translate(1495.634766 0.015625)"/>
    <use xlink:href="#DejaVuSans-3d" transform="translate(1583.525391 0.015625)"/>
    <use xlink:href="#DejaVuSans-30" transform="translate(1686.796875 0.015625)"/>
    <use xlink:href="#DejaVuSans-2e" transform="translate(1750.419922 0.015625)"/>
    <use xlink:href="#DejaVuSans-37" transform="translate(1774.457031 0.015625)"/>
    <use xlink:href="#DejaVuSans-35" transform="translate(1838.080078 0.015625)"/>
    <use xlink:href="#DejaVuSans-35" transform="translate(1901.703125 0.015625)"/>
    <use xlink:href="#DejaVuSans-32" transform="translate(1965.326172 0.015625)"/>
    <use xlink:href="#DejaVuSans-39" transform="translate(2027.199219 0.015625)"/>
   </g>
  </g>
 </g>
 <defs>
  <clipPath id="pcd2598f3fa">
   <rect x="96.666031" y="51.071418" width="805.443344" height="120.337164"/>
  </clipPath>
 </defs>
</svg>
