<svg version="1.1" viewBox="0.0 0.0 256.0 256.0" fill="none" stroke="none" stroke-linecap="square" stroke-miterlimit="10" xmlns:xlink="http://www.w3.org/1999/xlink" xmlns="http://www.w3.org/2000/svg"><clipPath id="p.0"><path d="m0 0l256.0 0l0 256.0l-256.0 0l0 -256.0z" clip-rule="nonzero"/></clipPath><g clip-path="url(#p.0)"><path fill="#000000" fill-opacity="0.0" d="m0 0l256.0 0l0 256.0l-256.0 0z" fill-rule="evenodd"/><path fill="#000000" fill-opacity="0.0" d="m157.35432 -25.51181l98.645676 0l0 180.97638l-98.645676 0z" fill-rule="evenodd"/><path fill="#1c75bc" d="m177.29182 111.48819l0 -95.4375l64.390625 0l0 11.265625l-51.765625 0l0 29.546875l44.796875 0l0 11.265625l-44.796875 0l0 43.359375l-12.625 0z" fill-rule="nonzero"/><path fill="#000000" fill-opacity="0.0" d="m231.14671 222.36296c-41.44371 -22.81189 -85.2388 -41.055313 -130.48723 -53.177765c-24.47763 -6.557785 -77.34579 -24.915222 -77.26132 5.765869c0.020923615 7.6003265 9.179855 9.940216 15.02557 12.267914c17.747108 7.0667267 36.660427 11.0923 55.74383 12.764862c46.230507 4.0518646 94.705605 3.5694122 136.76154 23.191269" fill-rule="evenodd"/><path stroke="#1c75bc" stroke-width="12.0" stroke-linejoin="round" stroke-linecap="butt" d="m231.14671 222.36296c-41.44371 -22.81189 -85.2388 -41.055313 -130.48723 -53.177765c-24.47763 -6.557785 -77.34579 -24.915222 -77.26132 5.765869c0.020923615 7.6003265 9.179855 9.940216 15.02557 12.267914c17.747108 7.0667267 36.660427 11.0923 55.74383 12.764862c46.230507 4.0518646 94.705605 3.5694122 136.76154 23.191269" fill-rule="evenodd"/></g></svg>