<svg version="1.1" viewBox="0.0 0.0 256.0 256.0" fill="none" stroke="none" stroke-linecap="square" stroke-miterlimit="10" xmlns:xlink="http://www.w3.org/1999/xlink" xmlns="http://www.w3.org/2000/svg"><clipPath id="p.0"><path d="m0 0l256.0 0l0 256.0l-256.0 0l0 -256.0z" clip-rule="nonzero"/></clipPath><g clip-path="url(#p.0)"><path fill="#000000" fill-opacity="0.0" d="m0 0l256.0 0l0 256.0l-256.0 0z" fill-rule="evenodd"/><path fill="#000000" fill-opacity="0.0" d="m29.71699 32.894928l196.56693 197.22835" fill-rule="evenodd"/><path stroke="#68f4f7" stroke-width="12.0" stroke-linejoin="round" stroke-linecap="butt" d="m29.71699 32.894928l196.56693 197.22835" fill-rule="evenodd"/><path fill="#68f4f7" d="m12.385827 32.131233l0 0c0 -9.280123 7.5230265 -16.80315 16.80315 -16.80315l0 0c4.4564743 0 8.730419 1.7703276 11.881622 4.921529c3.1511993 3.1512012 4.921528 7.425148 4.921528 11.88162l0 0c0 9.280125 -7.5230255 16.80315 -16.80315 16.80315l0 0c-9.280123 0 -16.80315 -7.5230255 -16.80315 -16.80315z" fill-rule="evenodd"/><path stroke="#999999" stroke-width="1.0" stroke-linejoin="round" stroke-linecap="butt" d="m12.385827 32.131233l0 0c0 -9.280123 7.5230265 -16.80315 16.80315 -16.80315l0 0c4.4564743 0 8.730419 1.7703276 11.881622 4.921529c3.1511993 3.1512012 4.921528 7.425148 4.921528 11.88162l0 0c0 9.280125 -7.5230255 16.80315 -16.80315 16.80315l0 0c-9.280123 0 -16.80315 -7.5230255 -16.80315 -16.80315z" fill-rule="evenodd"/><path fill="#68f4f7" d="m104.64042 124.727036l0 0c0 -9.2801285 7.5230255 -16.803154 16.803154 -16.803154l0 0c4.4564667 0 8.730423 1.7703323 11.881622 4.9215317c3.1511993 3.1511993 4.921524 7.425148 4.921524 11.881622l0 0c0 9.280121 -7.5230255 16.803146 -16.803146 16.803146l0 0c-9.2801285 0 -16.803154 -7.5230255 -16.803154 -16.803146z" fill-rule="evenodd"/><path stroke="#999999" stroke-width="1.0" stroke-linejoin="round" stroke-linecap="butt" d="m104.64042 124.727036l0 0c0 -9.2801285 7.5230255 -16.803154 16.803154 -16.803154l0 0c4.4564667 0 8.730423 1.7703323 11.881622 4.9215317c3.1511993 3.1511993 4.921524 7.425148 4.921524 11.881622l0 0c0 9.280121 -7.5230255 16.803146 -16.803146 16.803146l0 0c-9.2801285 0 -16.803154 -7.5230255 -16.803154 -16.803146z" fill-rule="evenodd"/><path fill="#68f4f7" d="m208.46982 228.89502l0 0c0 -9.280136 7.5230255 -16.803162 16.803146 -16.803162l0 0c4.4564667 0 8.730423 1.77034 11.881622 4.9215393c3.1511993 3.1511993 4.921524 7.4251404 4.921524 11.881622l0 0c0 9.280121 -7.5230255 16.803146 -16.803146 16.803146l0 0c-9.280121 0 -16.803146 -7.5230255 -16.803146 -16.803146z" fill-rule="evenodd"/><path stroke="#999999" stroke-width="1.0" stroke-linejoin="round" stroke-linecap="butt" d="m208.46982 228.89502l0 0c0 -9.280136 7.5230255 -16.803162 16.803146 -16.803162l0 0c4.4564667 0 8.730423 1.77034 11.881622 4.9215393c3.1511993 3.1511993 4.921524 7.4251404 4.921524 11.881622l0 0c0 9.280121 -7.5230255 16.803146 -16.803146 16.803146l0 0c-9.280121 0 -16.803146 -7.5230255 -16.803146 -16.803146z" fill-rule="evenodd"/><path fill="#000000" fill-opacity="0.0" d="m92.249344 63.66142l-43.874016 22.204723" fill-rule="evenodd"/><path stroke="#68f4f7" stroke-width="12.0" stroke-linejoin="round" stroke-linecap="butt" d="m92.249344 63.66142l-43.874016 22.204723" fill-rule="evenodd"/><path fill="#000000" fill-opacity="0.0" d="m108.249344 79.661415l-43.874016 22.204727" fill-rule="evenodd"/><path stroke="#68f4f7" stroke-width="12.0" stroke-linejoin="round" stroke-linecap="butt" d="m108.249344 79.661415l-43.874016 22.204727" fill-rule="evenodd"/><path fill="#000000" fill-opacity="0.0" d="m180.41995 155.23622l-43.874023 22.204727" fill-rule="evenodd"/><path stroke="#68f4f7" stroke-width="12.0" stroke-linejoin="round" stroke-linecap="butt" d="m180.41995 155.23622l-43.874023 22.204727" fill-rule="evenodd"/><path fill="#000000" fill-opacity="0.0" d="m196.41995 171.23622l-43.874023 22.204727" fill-rule="evenodd"/><path stroke="#68f4f7" stroke-width="12.0" stroke-linejoin="round" stroke-linecap="butt" d="m196.41995 171.23622l-43.874023 22.204727" fill-rule="evenodd"/><path fill="#000000" fill-opacity="0.0" d="m143.3202 -25.740158l120.157486 0l0 180.97638l-120.157486 0z" fill-rule="evenodd"/><path fill="#68f4f7" d="m162.99208 111.25984l0 -95.4375l12.640625 0l0 39.1875l49.59375 0l0 -39.1875l12.640625 0l0 95.4375l-12.640625 0l0 -44.984375l-49.59375 0l0 44.984375l-12.640625 0z" fill-rule="nonzero"/></g></svg>