<svg version="1.1" viewBox="0.0 0.0 256.0 256.0" fill="none" stroke="none" stroke-linecap="square" stroke-miterlimit="10" xmlns:xlink="http://www.w3.org/1999/xlink" xmlns="http://www.w3.org/2000/svg"><clipPath id="p.0"><path d="m0 0l256.0 0l0 256.0l-256.0 0l0 -256.0z" clip-rule="nonzero"/></clipPath><g clip-path="url(#p.0)"><path fill="#000000" fill-opacity="0.0" d="m0 0l256.0 0l0 256.0l-256.0 0z" fill-rule="evenodd"/><path fill="#000000" fill-opacity="0.0" d="m9.0336485 69.42849c15.252625 -6.451832 73.58694 -65.54741 91.515755 -38.710983c17.92881 26.836428 -5.3201904 172.284 16.057129 199.72954c21.377327 27.445557 93.50565 -29.213577 112.206795 -35.056305" fill-rule="evenodd"/><path stroke="#1c75bc" stroke-width="12.0" stroke-linejoin="round" stroke-linecap="butt" d="m9.0336485 69.42849c15.252625 -6.451832 73.58694 -65.54741 91.515755 -38.710983c17.92881 26.836428 -5.3201904 172.284 16.057129 199.72954c21.377327 27.445557 93.50565 -29.213577 112.206795 -35.056305" fill-rule="evenodd"/><path fill="#000000" fill-opacity="0.0" d="m145.69817 -23.48819l102.14172 0l0 144.69292l-102.14172 0z" fill-rule="evenodd"/><path fill="#1c75bc" d="m164.46379 113.51181l0 -95.4375l35.8125 0q10.9375 0 17.53125 2.90625q6.609375 2.890625 10.34375 8.921875q3.75 6.015625 3.75 12.578125q0 6.125 -3.328125 11.53125q-3.3125 5.40625 -10.015625 8.71875q8.65625 2.546875 13.3125 8.671875q4.65625 6.109375 4.65625 14.4375q0 6.703125 -2.828125 12.46875q-2.828125 5.765625 -7.0 8.890625q-4.171875 3.125 -10.453125 4.71875q-6.28125 1.59375 -15.390625 1.59375l-36.390625 0zm12.625 -55.34375l20.640625 0q8.40625 0 12.046875 -1.09375q4.8125 -1.4375 7.25 -4.75q2.453125 -3.328125 2.453125 -8.34375q0 -4.75 -2.28125 -8.359375q-2.28125 -3.609375 -6.515625 -4.9375q-4.234375 -1.34375 -14.515625 -1.34375l-19.078125 0l0 28.828125zm0 44.078125l23.765625 0q6.125 0 8.59375 -0.453125q4.359375 -0.78125 7.28125 -2.59375q2.9375 -1.828125 4.828125 -5.3125q1.890625 -3.484375 1.890625 -8.046875q0 -5.328125 -2.734375 -9.265625q-2.734375 -3.953125 -7.59375 -5.546875q-4.84375 -1.59375 -13.953125 -1.59375l-22.078125 0l0 32.8125z" fill-rule="nonzero"/></g></svg>