<svg version="1.1" viewBox="0.0 0.0 256.0 256.0" fill="none" stroke="none" stroke-linecap="square" stroke-miterlimit="10" xmlns:xlink="http://www.w3.org/1999/xlink" xmlns="http://www.w3.org/2000/svg"><clipPath id="p.0"><path d="m0 0l256.0 0l0 256.0l-256.0 0l0 -256.0z" clip-rule="nonzero"/></clipPath><g clip-path="url(#p.0)"><path fill="#000000" fill-opacity="0.0" d="m0 0l256.0 0l0 256.0l-256.0 0z" fill-rule="evenodd"/><path fill="#000000" fill-opacity="0.0" d="m9.0336485 69.42849c15.252625 -6.451832 73.58694 -65.54741 91.515755 -38.710983c17.92881 26.836428 -5.3201904 172.284 16.057129 199.72954c21.377327 27.445557 93.50565 -29.213577 112.206795 -35.056305" fill-rule="evenodd"/><path stroke="#1c75bc" stroke-width="12.0" stroke-linejoin="round" stroke-linecap="butt" d="m9.0336485 69.42849c15.252625 -6.451832 73.58694 -65.54741 91.515755 -38.710983c17.92881 26.836428 -5.3201904 172.284 16.057129 199.72954c21.377327 27.445557 93.50565 -29.213577 112.206795 -35.056305" fill-rule="evenodd"/><path fill="#000000" fill-opacity="0.0" d="m145.69817 -23.48819l102.14172 0l0 144.69292l-102.14172 0z" fill-rule="evenodd"/><path fill="#1c75bc" d="m164.85442 113.51181l0 -95.4375l12.953125 0l50.125 74.9375l0 -74.9375l12.109375 0l0 95.4375l-12.953125 0l-50.125 -75.0l0 75.0l-12.109375 0z" fill-rule="nonzero"/><path fill="#1c75bc" d="m83.4042 84.42257l25.196854 -45.95275l25.196846 45.95275z" fill-rule="evenodd"/><path stroke="#cccccc" stroke-width="4.0" stroke-linejoin="round" stroke-linecap="butt" d="m83.4042 84.42257l25.196854 -45.95275l25.196846 45.95275z" fill-rule="evenodd"/><path fill="#1c75bc" d="m83.4042 178.38058l25.196854 -45.95276l25.196846 45.95276z" fill-rule="evenodd"/><path stroke="#cccccc" stroke-width="4.0" stroke-linejoin="round" stroke-linecap="butt" d="m83.4042 178.38058l25.196854 -45.95276l25.196846 45.95276z" fill-rule="evenodd"/><path fill="#1c75bc" d="m133.7979 252.25197l25.196854 -45.95276l25.196854 45.95276z" fill-rule="evenodd"/><path stroke="#cccccc" stroke-width="4.0" stroke-linejoin="round" stroke-linecap="butt" d="m133.7979 252.25197l25.196854 -45.95276l25.196854 45.95276z" fill-rule="evenodd"/></g></svg>