<svg version="1.1" viewBox="0.0 0.0 256.0 256.0" fill="none" stroke="none" stroke-linecap="square" stroke-miterlimit="10" xmlns:xlink="http://www.w3.org/1999/xlink" xmlns="http://www.w3.org/2000/svg"><clipPath id="p.0"><path d="m0 0l256.0 0l0 256.0l-256.0 0l0 -256.0z" clip-rule="nonzero"/></clipPath><g clip-path="url(#p.0)"><path fill="#000000" fill-opacity="0.0" d="m0 0l256.0 0l0 256.0l-256.0 0z" fill-rule="evenodd"/><path fill="#000000" fill-opacity="0.0" d="m32.21043 55.020912l169.10236 169.10236" fill-rule="evenodd"/><path stroke="#1c75bc" stroke-width="12.0" stroke-linejoin="round" stroke-linecap="butt" d="m32.21043 55.020912l169.10236 169.10236" fill-rule="evenodd"/><path fill="#000000" fill-opacity="0.0" d="m51.060368 36.422573l-39.496063 39.24409" fill-rule="evenodd"/><path stroke="#1c75bc" stroke-width="12.0" stroke-linejoin="round" stroke-linecap="butt" d="m51.060368 36.422573l-39.496063 39.24409" fill-rule="evenodd"/><path fill="#000000" fill-opacity="0.0" d="m139.23622 -26.204725l118.80315 0l0 157.95276l-118.80315 0z" fill-rule="evenodd"/><path fill="#1c75bc" d="m158.51747 110.79527l0 -95.4375l32.875 0q11.140625 0 17.0 1.359374q8.203125 1.890625 14.0 6.84375q7.546875 6.375 11.28125 16.312502q3.75 9.921875 3.75 22.6875q0 10.859371 -2.546875 19.265621q-2.53125 8.390625 -6.5 13.90625q-3.96875 5.5 -8.6875 8.65625q-4.71875 3.15625 -11.390625 4.78125q-6.671875 1.625 -15.34375 1.625l-34.4375 0zm12.640625 -11.265625l20.375 0q9.4375 0 14.796875 -1.75q5.375 -1.765625 8.578125 -4.953125q4.484375 -4.484375 6.984375 -12.0625q2.515625 -7.59375 2.515625 -18.406246q0 -14.96875 -4.921875 -23.0q-4.90625 -8.046877 -11.9375 -10.781252q-5.078125 -1.953125 -16.34375 -1.953125l-20.046875 0l0 72.90625z" fill-rule="nonzero"/><path fill="#000000" fill-opacity="0.0" d="m221.27296 204.49869l-39.496063 39.244095" fill-rule="evenodd"/><path stroke="#1c75bc" stroke-width="12.0" stroke-linejoin="round" stroke-linecap="butt" d="m221.27296 204.49869l-39.496063 39.244095" fill-rule="evenodd"/></g></svg>