<svg version="1.1" viewBox="0.0 0.0 256.0 256.0" fill="none" stroke="none" stroke-linecap="square" stroke-miterlimit="10" xmlns:xlink="http://www.w3.org/1999/xlink" xmlns="http://www.w3.org/2000/svg"><clipPath id="p.0"><path d="m0 0l256.0 0l0 256.0l-256.0 0l0 -256.0z" clip-rule="nonzero"/></clipPath><g clip-path="url(#p.0)"><path fill="#000000" fill-opacity="0.0" d="m0 0l256.0 0l0 256.0l-256.0 0z" fill-rule="evenodd"/><path fill="#000000" fill-opacity="0.0" d="m208.2479 213.35011c-15.607834 -1.8959961 -70.315445 4.5730896 -93.64694 -11.375946c-23.33149 -15.94902 -42.90103 -54.22641 -46.34201 -84.31823c-3.440979 -30.09182 21.413452 -80.19391 25.696144 -96.2327" fill-rule="evenodd"/><path stroke="#1c75bc" stroke-width="12.0" stroke-linejoin="round" stroke-linecap="butt" d="m208.2479 213.35011c-15.607834 -1.8959961 -70.315445 4.5730896 -93.64694 -11.375946c-23.33149 -15.94902 -42.90103 -54.22641 -46.34201 -84.31823c-3.440979 -30.09182 21.413452 -80.19391 25.696144 -96.2327" fill-rule="evenodd"/><path fill="#000000" fill-opacity="0.0" d="m139.20473 -23.023623l102.14172 0l0 144.69292l-102.14172 0z" fill-rule="evenodd"/><path fill="#1c75bc" d="m203.15785 76.53888l0 -11.1875l40.421875 -0.078125l0 35.421875q-9.3125 7.421875 -19.203125 11.171875q-9.890625 3.734375 -20.3125 3.734375q-14.0625 0 -25.5625 -6.015625q-11.484375 -6.03125 -17.34375 -17.421875q-5.859375 -11.390625 -5.859375 -25.453125q0 -13.9375 5.828125 -26.0q5.828125 -12.078127 16.765625 -17.937502q10.9375 -5.859375 25.1875 -5.859375q10.359375 0 18.71875 3.359375q8.375 3.34375 13.125 9.34375q4.75 5.984377 7.21875 15.609377l-11.390625 3.125q-2.140625 -7.28125 -5.34375 -11.453125q-3.1875 -4.171875 -9.109375 -6.671877q-5.921875 -2.515625 -13.140625 -2.515625q-8.671875 0 -14.984375 2.640625q-6.3125 2.640627 -10.1875 6.937502q-3.875 4.296875 -6.015625 9.4375q-3.65625 8.859375 -3.65625 19.203125q0 12.765625 4.390625 21.359375q4.40625 8.59375 12.796875 12.765625q8.40625 4.15625 17.84375 4.15625q8.203125 0 16.015625 -3.15625q7.8125 -3.15625 11.84375 -6.734375l0 -17.78125l-28.046875 0z" fill-rule="nonzero"/><path fill="#cccccc" d="m81.56251 24.629921l0 0c0 -6.688299 5.4430923 -12.110236 12.157486 -12.110236l0 0c3.2243576 0 6.3166656 1.2758961 8.596634 3.5470057c2.2799683 2.2711105 3.5608444 5.3513966 3.5608444 8.5632305l0 0c0 6.688299 -5.4430923 12.110237 -12.157478 12.110237l0 0c-6.7143936 0 -12.157486 -5.421938 -12.157486 -12.110237z" fill-rule="evenodd"/><path stroke="#1c75bc" stroke-width="1.0" stroke-linejoin="round" stroke-linecap="butt" d="m81.56251 24.629921l0 0c0 -6.688299 5.4430923 -12.110236 12.157486 -12.110236l0 0c3.2243576 0 6.3166656 1.2758961 8.596634 3.5470057c2.2799683 2.2711105 3.5608444 5.3513966 3.5608444 8.5632305l0 0c0 6.688299 -5.4430923 12.110237 -12.157478 12.110237l0 0c-6.7143936 0 -12.157486 -5.421938 -12.157486 -12.110237z" fill-rule="evenodd"/><path fill="#cccccc" d="m39.188976 127.077515l0 0c0 -6.688301 5.4430885 -12.110237 12.157482 -12.110237l0 0c3.2243614 0 6.3166656 1.2758942 8.596634 3.5470047c2.279972 2.2711105 3.5608444 5.3513947 3.5608444 8.563232l0 0c0 6.6882935 -5.4430885 12.1102295 -12.157478 12.1102295l0 0c-6.7143936 0 -12.157482 -5.421936 -12.157482 -12.1102295z" fill-rule="evenodd"/><path stroke="#1c75bc" stroke-width="1.0" stroke-linejoin="round" stroke-linecap="butt" d="m39.188976 127.077515l0 0c0 -6.688301 5.4430885 -12.110237 12.157482 -12.110237l0 0c3.2243614 0 6.3166656 1.2758942 8.596634 3.5470047c2.279972 2.2711105 3.5608444 5.3513947 3.5608444 8.563232l0 0c0 6.6882935 -5.4430885 12.1102295 -12.157478 12.1102295l0 0c-6.7143936 0 -12.157482 -5.421936 -12.157482 -12.1102295z" fill-rule="evenodd"/><path fill="#cccccc" d="m63.506493 207.82704l0 0c0 -6.6883087 5.4430923 -12.110245 12.157478 -12.110245l0 0c3.2243652 0 6.3166733 1.2758942 8.596642 3.5470123c2.2799683 2.271103 3.5608444 5.3513947 3.5608444 8.563232l0 0c0 6.6882935 -5.4430923 12.1102295 -12.157486 12.1102295l0 0c-6.714386 0 -12.157478 -5.421936 -12.157478 -12.1102295z" fill-rule="evenodd"/><path stroke="#1c75bc" stroke-width="1.0" stroke-linejoin="round" stroke-linecap="butt" d="m63.506493 207.82704l0 0c0 -6.6883087 5.4430923 -12.110245 12.157478 -12.110245l0 0c3.2243652 0 6.3166733 1.2758942 8.596642 3.5470123c2.2799683 2.271103 3.5608444 5.3513947 3.5608444 8.563232l0 0c0 6.6882935 -5.4430923 12.1102295 -12.157486 12.1102295l0 0c-6.714386 0 -12.157478 -5.421936 -12.157478 -12.1102295z" fill-rule="evenodd"/><path fill="#cccccc" d="m193.93707 212.58868l0 0c0 -6.6882935 5.4431 -12.1102295 12.157486 -12.1102295l0 0c3.2243652 0 6.3166656 1.2758942 8.596634 3.5470123c2.2799683 2.271103 3.5608368 5.3513947 3.5608368 8.563217l0 0c0 6.6883087 -5.4430847 12.110245 -12.157471 12.110245l0 0c-6.714386 0 -12.157486 -5.421936 -12.157486 -12.110245z" fill-rule="evenodd"/><path stroke="#1c75bc" stroke-width="1.0" stroke-linejoin="round" stroke-linecap="butt" d="m193.93707 212.58868l0 0c0 -6.6882935 5.4431 -12.1102295 12.157486 -12.1102295l0 0c3.2243652 0 6.3166656 1.2758942 8.596634 3.5470123c2.2799683 2.271103 3.5608368 5.3513947 3.5608368 8.563217l0 0c0 6.6883087 -5.4430847 12.110245 -12.157471 12.110245l0 0c-6.714386 0 -12.157486 -5.421936 -12.157486 -12.110245z" fill-rule="evenodd"/><path fill="#000000" fill-opacity="0.0" d="m92.98425 24.811024l-41.732285 103.433075" fill-rule="evenodd"/><path stroke="#f1c232" stroke-width="4.0" stroke-linejoin="round" stroke-linecap="butt" d="m92.98425 24.811024l-32.752342 81.17638" fill-rule="evenodd"/><path fill="#f1c232" stroke="#f1c232" stroke-width="4.0" stroke-linecap="butt" d="m54.10489 103.51532l-0.66495514 19.305923l12.918991 -14.361771z" fill-rule="evenodd"/><path fill="#000000" fill-opacity="0.0" d="m75.826775 208.69554l130.11023 4.8503876" fill-rule="evenodd"/><path stroke="#f1c232" stroke-width="4.0" stroke-linejoin="round" stroke-linecap="butt" d="m75.826775 208.69554l106.126884 3.956314" fill-rule="evenodd"/><path fill="#f1c232" stroke="#f1c232" stroke-width="4.0" stroke-linecap="butt" d="m181.70753 219.2542l18.385925 -5.9261017l-17.893661 -7.2785797z" fill-rule="evenodd"/></g></svg>