<svg version="1.1" viewBox="0.0 0.0 256.0 256.0" fill="none" stroke="none" stroke-linecap="square" stroke-miterlimit="10" xmlns:xlink="http://www.w3.org/1999/xlink" xmlns="http://www.w3.org/2000/svg"><clipPath id="p.0"><path d="m0 0l256.0 0l0 256.0l-256.0 0l0 -256.0z" clip-rule="nonzero"/></clipPath><g clip-path="url(#p.0)"><path fill="#000000" fill-opacity="0.0" d="m0 0l256.0 0l0 256.0l-256.0 0z" fill-rule="evenodd"/><path fill="#000000" fill-opacity="0.0" d="m22.262466 66.78215l186.67717 171.59055" fill-rule="evenodd"/><path stroke="#68f4f7" stroke-width="12.0" stroke-linejoin="round" stroke-linecap="butt" d="m22.262466 66.78215l186.67717 171.59055" fill-rule="evenodd"/><path fill="#000000" fill-opacity="0.0" d="m137.97375 -14.141732l130.33072 0l0 142.14174l-130.33072 0z" fill-rule="evenodd"/><path fill="#68f4f7" d="m156.73938 122.85827l0 -95.4375l12.625 0l0 84.171875l47.0 0l0 11.265625l-59.625 0z" fill-rule="nonzero"/><path fill="#68f4f7" d="m6.257218 64.81102l0 0c0 -9.280121 7.523026 -16.803146 16.80315 -16.803146l0 0c4.4564724 0 8.730419 1.7703285 11.881622 4.921528c3.1511993 3.1512032 4.921528 7.425148 4.921528 11.8816185l0 0c0 9.2801285 -7.5230255 16.803154 -16.80315 16.803154l0 0c-9.280124 0 -16.80315 -7.5230255 -16.80315 -16.803154z" fill-rule="evenodd"/><path stroke="#999999" stroke-width="1.0" stroke-linejoin="round" stroke-linecap="butt" d="m6.257218 64.81102l0 0c0 -9.280121 7.523026 -16.803146 16.80315 -16.803146l0 0c4.4564724 0 8.730419 1.7703285 11.881622 4.921528c3.1511993 3.1512032 4.921528 7.425148 4.921528 11.8816185l0 0c0 9.2801285 -7.5230255 16.803154 -16.80315 16.803154l0 0c-9.280124 0 -16.80315 -7.5230255 -16.80315 -16.803154z" fill-rule="evenodd"/><path fill="#68f4f7" d="m189.4462 236.86876l0 0c0 -9.280121 7.5230255 -16.803146 16.803146 -16.803146l0 0c4.4564667 0 8.730423 1.7703247 11.881622 4.9215393c3.1511993 3.1511993 4.921524 7.4251404 4.921524 11.881607l0 0c0 9.280136 -7.5230255 16.803162 -16.803146 16.803162l0 0c-9.280121 0 -16.803146 -7.5230255 -16.803146 -16.803162z" fill-rule="evenodd"/><path stroke="#999999" stroke-width="1.0" stroke-linejoin="round" stroke-linecap="butt" d="m189.4462 236.86876l0 0c0 -9.280121 7.5230255 -16.803146 16.803146 -16.803146l0 0c4.4564667 0 8.730423 1.7703247 11.881622 4.9215393c3.1511993 3.1511993 4.921524 7.4251404 4.921524 11.881607l0 0c0 9.280136 -7.5230255 16.803162 -16.803146 16.803162l0 0c-9.280121 0 -16.803146 -7.5230255 -16.803146 -16.803162z" fill-rule="evenodd"/></g></svg>