<svg version="1.1" viewBox="0.0 0.0 256.0 256.0" fill="none" stroke="none" stroke-linecap="square" stroke-miterlimit="10" xmlns:xlink="http://www.w3.org/1999/xlink" xmlns="http://www.w3.org/2000/svg"><clipPath id="p.0"><path d="m0 0l256.0 0l0 256.0l-256.0 0l0 -256.0z" clip-rule="nonzero"/></clipPath><g clip-path="url(#p.0)"><path fill="#000000" fill-opacity="0.0" d="m0 0l256.0 0l0 256.0l-256.0 0z" fill-rule="evenodd"/><path fill="#000000" fill-opacity="0.0" d="m231.14671 176.78291c-41.44371 -22.81189 -85.2388 -41.055313 -130.48723 -53.177773c-24.47763 -6.5577774 -77.34579 -24.915222 -77.26132 5.7658615c0.020923615 7.600342 9.179855 9.940231 15.02557 12.267929c17.747108 7.0667267 36.660427 11.092285 55.74383 12.764862c46.230507 4.0518646 94.705605 3.5694122 136.76154 23.191254" fill-rule="evenodd"/><path stroke="#68f4f7" stroke-width="12.0" stroke-linejoin="round" stroke-linecap="butt" d="m231.14671 176.78291c-41.44371 -22.81189 -85.2388 -41.055313 -130.48723 -53.177773c-24.47763 -6.5577774 -77.34579 -24.915222 -77.26132 5.7658615c0.020923615 7.600342 9.179855 9.940231 15.02557 12.267929c17.747108 7.0667267 36.660427 11.092285 55.74383 12.764862c46.230507 4.0518646 94.705605 3.5694122 136.76154 23.191254" fill-rule="evenodd"/><path fill="#000000" fill-opacity="0.0" d="m131.48032 -29.5958l98.645676 0l0 180.97638l-98.645676 0z" fill-rule="evenodd"/><path fill="#68f4f7" d="m150.37094 107.4042l0 -95.4375l19.015625 0l22.59375 67.578125q3.125 9.4375 4.546875 14.125q1.640625 -5.203125 5.078125 -15.296875l22.859375 -66.40625l16.984375 0l0 95.4375l-12.171875 0l0 -79.875l-27.734375 79.875l-11.390625 0l-27.609375 -81.25l0 81.25l-12.171875 0z" fill-rule="nonzero"/><path fill="#000000" fill-opacity="0.0" d="m231.14671 239.4102c-41.44371 -22.811874 -85.2388 -41.055313 -130.48723 -53.177765c-24.47763 -6.55777 -77.34579 -24.915222 -77.26132 5.765869c0.020923615 7.600342 9.179855 9.940216 15.02557 12.267929c17.747108 7.0667114 36.660427 11.092285 55.74383 12.764847c46.230507 4.0518646 94.705605 3.5694122 136.76154 23.191269" fill-rule="evenodd"/><path stroke="#68f4f7" stroke-width="12.0" stroke-linejoin="round" stroke-linecap="butt" d="m231.14671 239.4102c-41.44371 -22.811874 -85.2388 -41.055313 -130.48723 -53.177765c-24.47763 -6.55777 -77.34579 -24.915222 -77.26132 5.765869c0.020923615 7.600342 9.179855 9.940216 15.02557 12.267929c17.747108 7.0667114 36.660427 11.092285 55.74383 12.764847c46.230507 4.0518646 94.705605 3.5694122 136.76154 23.191269" fill-rule="evenodd"/></g></svg>