<svg version="1.1" viewBox="0.0 0.0 256.0 256.0" fill="none" stroke="none" stroke-linecap="square" stroke-miterlimit="10" xmlns:xlink="http://www.w3.org/1999/xlink" xmlns="http://www.w3.org/2000/svg"><clipPath id="p.0"><path d="m0 0l256.0 0l0 256.0l-256.0 0l0 -256.0z" clip-rule="nonzero"/></clipPath><g clip-path="url(#p.0)"><path fill="#000000" fill-opacity="0.0" d="m0 0l256.0 0l0 256.0l-256.0 0z" fill-rule="evenodd"/><path fill="#000000" fill-opacity="0.0" d="m24.51181 24.850393l0 206.979l206.97638 0" fill-rule="evenodd"/><path stroke="#68f4f7" stroke-width="12.0" stroke-linejoin="round" stroke-linecap="butt" d="m24.51181 24.850393l0 206.979l206.97638 0" fill-rule="evenodd"/><path fill="#000000" fill-opacity="0.0" d="m72.509636 231.83046l0 -47.998444l-47.997826 0" fill-rule="evenodd"/><path stroke="#68f4f7" stroke-width="12.0" stroke-linejoin="round" stroke-linecap="butt" d="m72.509636 231.83046l0 -47.998444l-47.997826 0" fill-rule="evenodd"/><path fill="#000000" fill-opacity="0.0" d="m149.1076 -26.551182l118.80316 0l0 180.97638l-118.80316 0z" fill-rule="evenodd"/><path fill="#68f4f7" d="m192.6701 110.44882l0 -84.171875l-31.4375 0l0 -11.265624l75.640625 0l0 11.265624l-31.5625 0l0 84.171875l-12.640625 0z" fill-rule="nonzero"/></g></svg>