<svg version="1.1" viewBox="0.0 0.0 256.0 256.0" fill="none" stroke="none" stroke-linecap="square" stroke-miterlimit="10" xmlns:xlink="http://www.w3.org/1999/xlink" xmlns="http://www.w3.org/2000/svg"><clipPath id="p.0"><path d="m0 0l256.0 0l0 256.0l-256.0 0l0 -256.0z" clip-rule="nonzero"/></clipPath><g clip-path="url(#p.0)"><path fill="#000000" fill-opacity="0.0" d="m0 0l256.0 0l0 256.0l-256.0 0z" fill-rule="evenodd"/><path fill="#1c75bc" d="m11.5958 166.14961l0 0c0 -39.76451 32.235497 -72.00001 72.0 -72.00001l0 0c19.095589 0 37.409065 7.5856934 50.91169 21.08831c13.502609 13.5026245 21.088303 31.816101 21.088303 50.911697l0 0c0 39.764496 -32.23549 72.0 -71.99999 72.0l0 0c-39.764503 0 -72.0 -32.235504 -72.0 -72.0z" fill-rule="evenodd"/><path stroke="#999999" stroke-width="4.0" stroke-linejoin="round" stroke-linecap="butt" d="m11.5958 166.14961l0 0c0 -39.76451 32.235497 -72.00001 72.0 -72.00001l0 0c19.095589 0 37.409065 7.5856934 50.91169 21.08831c13.502609 13.5026245 21.088303 31.816101 21.088303 50.911697l0 0c0 39.764496 -32.23549 72.0 -71.99999 72.0l0 0c-39.764503 0 -72.0 -32.235504 -72.0 -72.0z" fill-rule="evenodd"/><path fill="#000000" fill-opacity="0.0" d="m149.79527 -26.677166l116.88188 0l0 130.3307l-116.88188 0z" fill-rule="evenodd"/><path fill="#1c75bc" d="m169.07652 110.32284l0 -95.4375l36.0 0q9.515625 0 14.53125 0.90625q7.015625 1.171874 11.765625 4.468749q4.765625 3.28125 7.65625 9.203125q2.90625 5.921875 2.90625 13.03125q0 12.171875 -7.75 20.609375q-7.75 8.421879 -28.0 8.421879l-24.46875 0l0 38.796875l-12.640625 0zm12.640625 -50.062504l24.671875 0q12.234375 0 17.375 -4.546875q5.140625 -4.5625 5.140625 -12.828125q0 -6.0 -3.03125 -10.265625q-3.015625 -4.265625 -7.96875 -5.625q-3.1875 -0.84375 -11.78125 -0.84375l-24.40625 0l0 34.109375z" fill-rule="nonzero"/></g></svg>