<svg version="1.1" viewBox="0.0 0.0 256.0 256.0" fill="none" stroke="none" stroke-linecap="square" stroke-miterlimit="10" xmlns:xlink="http://www.w3.org/1999/xlink" xmlns="http://www.w3.org/2000/svg"><clipPath id="p.0"><path d="m0 0l256.0 0l0 256.0l-256.0 0l0 -256.0z" clip-rule="nonzero"/></clipPath><g clip-path="url(#p.0)"><path fill="#000000" fill-opacity="0.0" d="m0 0l256.0 0l0 256.0l-256.0 0z" fill-rule="evenodd"/><path fill="#000000" fill-opacity="0.0" d="m26.415222 32.157715l65.1147 141.29453l123.0789 50.38974" fill-rule="evenodd"/><path stroke="#68f4f7" stroke-width="12.0" stroke-linejoin="round" stroke-linecap="butt" stroke-dasharray="48.0,36.0" d="m26.415222 32.157715l65.1147 141.29453l123.0789 50.38974" fill-rule="evenodd"/><path fill="#000000" fill-opacity="0.0" d="m69.90032 125.82417l0 0c16.732178 -3.8448944 34.172707 1.4577408 46.411934 14.11113c12.239227 12.653397 17.636612 30.961487 14.363281 48.720657l-49.959 -10.280624z" fill-rule="evenodd"/><path fill="#000000" fill-opacity="0.0" d="m69.90032 125.82417l0 0c16.732178 -3.8448944 34.172707 1.4577408 46.411934 14.11113c12.239227 12.653397 17.636612 30.961487 14.363281 48.720657" fill-rule="evenodd"/><path stroke="#68f4f7" stroke-width="12.0" stroke-linejoin="round" stroke-linecap="butt" d="m69.90032 125.82417l0 0c16.732178 -3.8448944 34.172707 1.4577408 46.411934 14.11113c12.239227 12.653397 17.636612 30.961487 14.363281 48.720657" fill-rule="evenodd"/><path fill="#000000" fill-opacity="0.0" d="m140.59317 -24.52231l121.543304 0l0 140.94489l-121.543304 0z" fill-rule="evenodd"/><path fill="#68f4f7" d="m149.40567 112.47769l36.640625 -95.4375l13.609375 0l39.0625 95.4375l-14.390625 0l-11.125 -28.90625l-39.90625 0l-10.484375 28.90625l-13.40625 0zm27.53125 -39.1875l32.359375 0l-9.96875 -26.4375q-4.546875 -12.046875 -6.765625 -19.781252q-1.828125 9.171877 -5.140625 18.218752l-10.484375 28.0z" fill-rule="nonzero"/></g></svg>