<svg version="1.1" viewBox="0.0 0.0 256.0 256.0" fill="none" stroke="none" stroke-linecap="square" stroke-miterlimit="10" xmlns:xlink="http://www.w3.org/1999/xlink" xmlns="http://www.w3.org/2000/svg"><clipPath id="p.0"><path d="m0 0l256.0 0l0 256.0l-256.0 0l0 -256.0z" clip-rule="nonzero"/></clipPath><g clip-path="url(#p.0)"><path fill="#000000" fill-opacity="0.0" d="m0 0l256.0 0l0 256.0l-256.0 0z" fill-rule="evenodd"/><path fill="#000000" fill-opacity="0.0" d="m52.595974 150.46877l0 0c0 -26.509666 21.490337 -48.0 48.000004 -48.0l0 0c12.730392 0 24.939377 5.057129 33.941116 14.058876c9.001755 9.001747 14.058884 21.210732 14.058884 33.941124l0 0c0 26.509674 -21.490334 48.0 -48.0 48.0l0 0c-26.509666 0 -48.000004 -21.490326 -48.000004 -48.0z" fill-rule="evenodd"/><path stroke="#1c75bc" stroke-width="12.0" stroke-linejoin="round" stroke-linecap="butt" d="m52.595974 150.46877l0 0c0 -26.509666 21.490337 -48.0 48.000004 -48.0l0 0c12.730392 0 24.939377 5.057129 33.941116 14.058876c9.001755 9.001747 14.058884 21.210732 14.058884 33.941124l0 0c0 26.509674 -21.490334 48.0 -48.0 48.0l0 0c-26.509666 0 -48.000004 -21.490326 -48.000004 -48.0z" fill-rule="evenodd"/><path fill="#000000" fill-opacity="0.0" d="m48.679398 17.020998c-15.177502 55.67685 -20.378231 131.10995 20.427818 171.91602c40.28762 40.287613 110.95081 45.13289 167.14697 35.742783" fill-rule="evenodd"/><path stroke="#1c75bc" stroke-width="12.0" stroke-linejoin="round" stroke-linecap="butt" d="m48.679398 17.020998c-15.177502 55.67685 -20.378231 131.10995 20.427818 171.91602c40.28762 40.287613 110.95081 45.13289 167.14697 35.742783" fill-rule="evenodd"/><path fill="#000000" fill-opacity="0.0" d="m138.55118 -26.20735l133.79529 0l0 180.97638l-133.79529 0z" fill-rule="evenodd"/><path fill="#1c75bc" d="m158.03555 110.79265l0 -95.4375l42.3125 0q12.765625 0 19.40625 2.578124q6.640625 2.5625 10.609375 9.078125q3.96875 6.500002 3.96875 14.390627q0 10.140625 -6.578125 17.109375q-6.578125 6.968746 -20.3125 8.859371q5.015625 2.40625 7.625 4.75q5.53125 5.078125 10.46875 12.703125l16.609375 25.96875l-15.890625 0l-12.625 -19.859375q-5.53125 -8.59375 -9.109375 -13.140625q-3.578125 -4.5625 -6.421875 -6.375q-2.828125 -1.828125 -5.75 -2.546875q-2.15625 -0.453125 -7.03125 -0.453125l-14.65625 0l0 42.375l-12.625 0zm12.625 -53.312496l27.15625 0q8.65625 0 13.53125 -1.796875q4.890625 -1.796875 7.421875 -5.734375q2.546875 -3.9375 2.546875 -8.546875q0 -6.78125 -4.921875 -11.140627q-4.90625 -4.359375 -15.53125 -4.359375l-30.203125 0l0 31.578127z" fill-rule="nonzero"/></g></svg>