<svg version="1.1" viewBox="0.0 0.0 256.0 256.0" fill="none" stroke="none" stroke-linecap="square" stroke-miterlimit="10" xmlns:xlink="http://www.w3.org/1999/xlink" xmlns="http://www.w3.org/2000/svg"><clipPath id="p.0"><path d="m0 0l256.0 0l0 256.0l-256.0 0l0 -256.0z" clip-rule="nonzero"/></clipPath><g clip-path="url(#p.0)"><path fill="#000000" fill-opacity="0.0" d="m0 0l256.0 0l0 256.0l-256.0 0z" fill-rule="evenodd"/><path fill="#000000" fill-opacity="0.0" d="m26.20735 43.910763l169.5433 198.80315" fill-rule="evenodd"/><path stroke="#68f4f7" stroke-width="12.0" stroke-linejoin="round" stroke-linecap="butt" d="m26.20735 43.910763l169.5433 198.80315" fill-rule="evenodd"/><path fill="#68f4f7" d="m11.35958 132.06036l0 0c0 -9.280121 7.5230265 -16.803146 16.80315 -16.803146l0 0c4.4564724 0 8.730421 1.7703247 11.88162 4.9215317c3.1512032 3.1511993 4.921528 7.425148 4.921528 11.881615l0 0c0 9.280121 -7.5230255 16.803146 -16.803148 16.803146l0 0c-9.280123 0 -16.80315 -7.5230255 -16.80315 -16.803146z" fill-rule="evenodd"/><path stroke="#999999" stroke-width="1.0" stroke-linejoin="round" stroke-linecap="butt" d="m11.35958 132.06036l0 0c0 -9.280121 7.5230265 -16.803146 16.80315 -16.803146l0 0c4.4564724 0 8.730421 1.7703247 11.88162 4.9215317c3.1512032 3.1511993 4.921528 7.425148 4.921528 11.881615l0 0c0 9.280121 -7.5230255 16.803146 -16.803148 16.803146l0 0c-9.280123 0 -16.80315 -7.5230255 -16.80315 -16.803146z" fill-rule="evenodd"/><path fill="#68f4f7" d="m94.17585 57.650917l0 0c0 -9.280121 7.523033 -16.803146 16.803154 -16.803146l0 0c4.4564743 0 8.730415 1.7703247 11.881622 4.921528c3.1511993 3.1511993 4.921524 7.425148 4.921524 11.8816185l0 0c0 9.2801285 -7.5230255 16.803154 -16.803146 16.803154l0 0c-9.280121 0 -16.803154 -7.5230255 -16.803154 -16.803154z" fill-rule="evenodd"/><path stroke="#999999" stroke-width="1.0" stroke-linejoin="round" stroke-linecap="butt" d="m94.17585 57.650917l0 0c0 -9.280121 7.523033 -16.803146 16.803154 -16.803146l0 0c4.4564743 0 8.730415 1.7703247 11.881622 4.921528c3.1511993 3.1511993 4.921524 7.425148 4.921524 11.8816185l0 0c0 9.2801285 -7.5230255 16.803154 -16.803146 16.803154l0 0c-9.280121 0 -16.803154 -7.5230255 -16.803154 -16.803154z" fill-rule="evenodd"/><path fill="#000000" fill-opacity="0.0" d="m146.38058 -25.1916l128.97638 0l0 180.97638l-128.97638 0z" fill-rule="evenodd"/><path fill="#68f4f7" d="m161.36496 81.152145l11.921875 -1.046875q0.84375 7.15625 3.9375 11.75q3.09375 4.59375 9.59375 7.421875q6.515625 2.828125 14.65625 2.828125q7.21875 0 12.75 -2.140625q5.546875 -2.15625 8.234375 -5.890625q2.703125 -3.75 2.703125 -8.171875q0 -4.5 -2.609375 -7.84375q-2.59375 -3.359375 -8.578125 -5.640625q-3.84375 -1.5 -17.0 -4.65625q-13.140625 -3.15625 -18.421875 -5.953121q-6.828125 -3.578125 -10.1875 -8.875q-3.34375 -5.3125 -3.34375 -11.890625q0 -7.21875 4.09375 -13.5q4.109375 -6.296875 11.984375 -9.546875q7.875 -3.25 17.515625 -3.25q10.609375 0 18.703125 3.421875q8.109375 3.40625 12.46875 10.046875q4.359375 6.640625 4.6875 15.046875l-12.109375 0.90625q-0.96875 -9.046875 -6.609375 -13.671875q-5.625 -4.625 -16.625 -4.625q-11.453125 0 -16.703125 4.203125q-5.234375 4.203125 -5.234375 10.125q0 5.140625 3.703125 8.453125q3.65625 3.328125 19.046875 6.8125q15.390625 3.484375 21.125 6.078125q8.328125 3.8437462 12.296875 9.734371q3.984375 5.890625 3.984375 13.578125q0 7.625 -4.375 14.359375q-4.359375 6.734375 -12.53125 10.484375q-8.15625 3.734375 -18.390625 3.734375q-12.953125 0 -21.71875 -3.765625q-8.75 -3.78125 -13.734375 -11.359375q-4.96875 -7.59375 -5.234375 -17.15625z" fill-rule="nonzero"/><path fill="#68f4f7" d="m172.13124 186.3307l0 0c0 -9.280121 7.5230255 -16.803146 16.803146 -16.803146l0 0c4.4564667 0 8.730408 1.7703247 11.881622 4.921524c3.1511993 3.1512146 4.921524 7.4251556 4.921524 11.881622l0 0c0 9.280121 -7.5230255 16.803162 -16.803146 16.803162l0 0c-9.280121 0 -16.803146 -7.523041 -16.803146 -16.803162z" fill-rule="evenodd"/><path stroke="#999999" stroke-width="1.0" stroke-linejoin="round" stroke-linecap="butt" d="m172.13124 186.3307l0 0c0 -9.280121 7.5230255 -16.803146 16.803146 -16.803146l0 0c4.4564667 0 8.730408 1.7703247 11.881622 4.921524c3.1511993 3.1512146 4.921524 7.4251556 4.921524 11.881622l0 0c0 9.280121 -7.5230255 16.803162 -16.803146 16.803162l0 0c-9.280121 0 -16.803146 -7.523041 -16.803146 -16.803162z" fill-rule="evenodd"/><path fill="#68f4f7" d="m125.40157 228.06036l0 0c0 -9.280121 7.523033 -16.803146 16.803154 -16.803146l0 0c4.4564667 0 8.730423 1.7703247 11.881622 4.921524c3.1511993 3.1511993 4.921524 7.4251556 4.921524 11.881622l0 0c0 9.280121 -7.5230255 16.803146 -16.803146 16.803146l0 0c-9.280121 0 -16.803154 -7.5230255 -16.803154 -16.803146z" fill-rule="evenodd"/><path stroke="#999999" stroke-width="1.0" stroke-linejoin="round" stroke-linecap="butt" d="m125.40157 228.06036l0 0c0 -9.280121 7.523033 -16.803146 16.803154 -16.803146l0 0c4.4564667 0 8.730423 1.7703247 11.881622 4.921524c3.1511993 3.1511993 4.921524 7.4251556 4.921524 11.881622l0 0c0 9.280121 -7.5230255 16.803146 -16.803146 16.803146l0 0c-9.280121 0 -16.803154 -7.5230255 -16.803154 -16.803146z" fill-rule="evenodd"/></g></svg>