<svg version="1.1" viewBox="0.0 0.0 256.0 256.0" fill="none" stroke="none" stroke-linecap="square" stroke-miterlimit="10" xmlns:xlink="http://www.w3.org/1999/xlink" xmlns="http://www.w3.org/2000/svg"><clipPath id="p.0"><path d="m0 0l256.0 0l0 256.0l-256.0 0l0 -256.0z" clip-rule="nonzero"/></clipPath><g clip-path="url(#p.0)"><path fill="#000000" fill-opacity="0.0" d="m0 0l256.0 0l0 256.0l-256.0 0z" fill-rule="evenodd"/><path fill="#000000" fill-opacity="0.0" d="m26.20735 43.910763l169.5433 198.80315" fill-rule="evenodd"/><path stroke="#1c75bc" stroke-width="12.0" stroke-linejoin="round" stroke-linecap="butt" d="m26.20735 43.910763l169.5433 198.80315" fill-rule="evenodd"/><path fill="#1c75bc" d="m11.35958 132.06036l0 0c0 -9.280121 7.5230265 -16.803146 16.80315 -16.803146l0 0c4.4564724 0 8.730421 1.7703247 11.88162 4.9215317c3.1512032 3.1511993 4.921528 7.425148 4.921528 11.881615l0 0c0 9.280121 -7.5230255 16.803146 -16.803148 16.803146l0 0c-9.280123 0 -16.80315 -7.5230255 -16.80315 -16.803146z" fill-rule="evenodd"/><path stroke="#999999" stroke-width="1.0" stroke-linejoin="round" stroke-linecap="butt" d="m11.35958 132.06036l0 0c0 -9.280121 7.5230265 -16.803146 16.80315 -16.803146l0 0c4.4564724 0 8.730421 1.7703247 11.88162 4.9215317c3.1512032 3.1511993 4.921528 7.425148 4.921528 11.881615l0 0c0 9.280121 -7.5230255 16.803146 -16.803148 16.803146l0 0c-9.280123 0 -16.80315 -7.5230255 -16.80315 -16.803146z" fill-rule="evenodd"/><path fill="#1c75bc" d="m94.17585 57.650917l0 0c0 -9.280121 7.523033 -16.803146 16.803154 -16.803146l0 0c4.4564743 0 8.730415 1.7703247 11.881622 4.921528c3.1511993 3.1511993 4.921524 7.425148 4.921524 11.8816185l0 0c0 9.2801285 -7.5230255 16.803154 -16.803146 16.803154l0 0c-9.280121 0 -16.803154 -7.5230255 -16.803154 -16.803154z" fill-rule="evenodd"/><path stroke="#999999" stroke-width="1.0" stroke-linejoin="round" stroke-linecap="butt" d="m94.17585 57.650917l0 0c0 -9.280121 7.523033 -16.803146 16.803154 -16.803146l0 0c4.4564743 0 8.730415 1.7703247 11.881622 4.921528c3.1511993 3.1511993 4.921524 7.425148 4.921524 11.8816185l0 0c0 9.2801285 -7.5230255 16.803154 -16.803146 16.803154l0 0c-9.280121 0 -16.803154 -7.5230255 -16.803154 -16.803154z" fill-rule="evenodd"/><path fill="#000000" fill-opacity="0.0" d="m128.0 -26.89239l128.97638 0l0 180.97638l-128.97638 0z" fill-rule="evenodd"/><path fill="#1c75bc" d="m146.89062 110.10761l0 -95.4375l19.015625 0l22.59375 67.578125q3.125 9.4375 4.546875 14.125q1.640625 -5.203125 5.078125 -15.296875l22.859375 -66.40625l16.984375 0l0 95.4375l-12.171875 0l0 -79.875l-27.734375 79.875l-11.390625 0l-27.609375 -81.25l0 81.25l-12.171875 0z" fill-rule="nonzero"/><path fill="#1c75bc" d="m172.13124 186.3307l0 0c0 -9.280121 7.5230255 -16.803146 16.803146 -16.803146l0 0c4.4564667 0 8.730408 1.7703247 11.881622 4.921524c3.1511993 3.1512146 4.921524 7.4251556 4.921524 11.881622l0 0c0 9.280121 -7.5230255 16.803162 -16.803146 16.803162l0 0c-9.280121 0 -16.803146 -7.523041 -16.803146 -16.803162z" fill-rule="evenodd"/><path stroke="#999999" stroke-width="1.0" stroke-linejoin="round" stroke-linecap="butt" d="m172.13124 186.3307l0 0c0 -9.280121 7.5230255 -16.803146 16.803146 -16.803146l0 0c4.4564667 0 8.730408 1.7703247 11.881622 4.921524c3.1511993 3.1512146 4.921524 7.4251556 4.921524 11.881622l0 0c0 9.280121 -7.5230255 16.803162 -16.803146 16.803162l0 0c-9.280121 0 -16.803146 -7.523041 -16.803146 -16.803162z" fill-rule="evenodd"/><path fill="#1c75bc" d="m125.40157 228.06036l0 0c0 -9.280121 7.523033 -16.803146 16.803154 -16.803146l0 0c4.4564667 0 8.730423 1.7703247 11.881622 4.921524c3.1511993 3.1511993 4.921524 7.4251556 4.921524 11.881622l0 0c0 9.280121 -7.5230255 16.803146 -16.803146 16.803146l0 0c-9.280121 0 -16.803154 -7.5230255 -16.803154 -16.803146z" fill-rule="evenodd"/><path stroke="#999999" stroke-width="1.0" stroke-linejoin="round" stroke-linecap="butt" d="m125.40157 228.06036l0 0c0 -9.280121 7.523033 -16.803146 16.803154 -16.803146l0 0c4.4564667 0 8.730423 1.7703247 11.881622 4.921524c3.1511993 3.1511993 4.921524 7.4251556 4.921524 11.881622l0 0c0 9.280121 -7.5230255 16.803146 -16.803146 16.803146l0 0c-9.280121 0 -16.803154 -7.5230255 -16.803154 -16.803146z" fill-rule="evenodd"/></g></svg>