<svg version="1.1" viewBox="0.0 0.0 256.0 256.0" fill="none" stroke="none" stroke-linecap="square" stroke-miterlimit="10" xmlns:xlink="http://www.w3.org/1999/xlink" xmlns="http://www.w3.org/2000/svg"><clipPath id="p.0"><path d="m0 0l256.0 0l0 256.0l-256.0 0l0 -256.0z" clip-rule="nonzero"/></clipPath><g clip-path="url(#p.0)"><path fill="#000000" fill-opacity="0.0" d="m0 0l256.0 0l0 256.0l-256.0 0z" fill-rule="evenodd"/><path fill="#000000" fill-opacity="0.0" d="m231.14671 222.36296c-41.44371 -22.81189 -85.2388 -41.055313 -130.48723 -53.177765c-24.47763 -6.557785 -77.34579 -24.915222 -77.26132 5.765869c0.020923615 7.6003265 9.179855 9.940216 15.02557 12.267914c17.747108 7.0667267 36.660427 11.0923 55.74383 12.764862c46.230507 4.0518646 94.705605 3.5694122 136.76154 23.191269" fill-rule="evenodd"/><path stroke="#1c75bc" stroke-width="12.0" stroke-linejoin="round" stroke-linecap="butt" d="m231.14671 222.36296c-41.44371 -22.81189 -85.2388 -41.055313 -130.48723 -53.177765c-24.47763 -6.557785 -77.34579 -24.915222 -77.26132 5.765869c0.020923615 7.6003265 9.179855 9.940216 15.02557 12.267914c17.747108 7.0667267 36.660427 11.0923 55.74383 12.764862c46.230507 4.0518646 94.705605 3.5694122 136.76154 23.191269" fill-rule="evenodd"/><path fill="#000000" fill-opacity="0.0" d="m107.09974 -26.433071l98.64567 0l0 180.97638l-98.64567 0z" fill-rule="evenodd"/><path fill="#1c75bc" d="m143.05286 110.56693l-25.328117 -95.4375l12.953117 0l14.515625 62.562504q2.34375 9.828125 4.046875 19.53125q3.640625 -15.296875 4.296875 -17.640625l18.15625 -64.453125l15.234375 0l13.671875 48.296875q5.140625 17.968754 7.421875 33.79688q1.828125 -9.046875 4.75 -20.765625l14.984375 -61.32813l12.6875 0l-26.171875 95.4375l-12.171875 0l-20.109375 -72.71875q-2.546875 -9.109375 -3.0 -11.203125q-1.5 6.578125 -2.796875 11.203125l-20.25 72.71875l-12.890625 0z" fill-rule="nonzero"/></g></svg>